  0
SECTION
  2
HEADER
  9
$ACADVER
  1
AC1014
  9
$HANDSEED
  5
FFFF
  9
$MEASUREMENT
 70
     1
  0
ENDSEC
  0
SECTION
  2
TABLES
  0
TABLE
  2
VPORT
  5
8
330
0
100
AcDbSymbolTable
 70
     4
  0
VPORT
  5
2E
330
8
100
AcDbSymbolTableRecord
100
AcDbViewportTableRecord
  2
*ACTIVE
 70
     0
 10
0.0
 20
0.0
 11
1.0
 21
1.0
 12
210.0
 22
148.5
 13
0.0
 23
0.0
 14
10.0
 24
10.0
 15
10.0
 25
10.0
 16
0.0
 26
0.0
 36
1.0
 17
0.0
 27
0.0
 37
0.0
 40
341.0
 41
1.24
 42
50.0
 43
0.0
 44
0.0
 50
0.0
 51
0.0
 71
     0
 72
   100
 73
     1
 74
     3
 75
     0
 76
     0
 77
     0
 78
     0
  0
ENDTAB
  0
TABLE
  2
LTYPE
  5
5
330
0
100
AcDbSymbolTable
 70
     1
  0
LTYPE
  5
14
330
5
100
AcDbSymbolTableRecord
100
AcDbLinetypeTableRecord
  2
BYBLOCK
 70
     0
  3

 72
    65
 73
     0
 40
0.0
  0
LTYPE
  5
15
330
5
100
AcDbSymbolTableRecord
100
AcDbLinetypeTableRecord
  2
BYLAYER
 70
     0
  3

 72
    65
 73
     0
 40
0.0
  0
LTYPE
  5
16
330
5
100
AcDbSymbolTableRecord
100
AcDbLinetypeTableRecord
  2
CONTINUOUS
 70
     0
  3
Solid line
 72
    65
 73
     0
 40
0.0
  0
ENDTAB
  0
TABLE
  2
LAYER
  5
2
100
AcDbSymbolTable
 70
1
  0
LAYER
  5
50
100
AcDbSymbolTableRecord
100
AcDbLayerTableRecord
  2
0
 70
0
  6
CONTINUOUS
  0
ENDTAB
  0
TABLE
  2
STYLE
  5
3
330
0
100
AcDbSymbolTable
 70
     1
  0
STYLE
  5
11
330
3
100
AcDbSymbolTableRecord
100
AcDbTextStyleTableRecord
  2
STANDARD
 70
     0
 40
0.0
 41
1.0
 50
0.0
 71
     0
 42
2.5
  3
txt
  4

  0
ENDTAB
  0
TABLE
  2
VIEW
  5
6
330
0
100
AcDbSymbolTable
 70
     0
  0
ENDTAB
  0
TABLE
  2
UCS
  5
7
330
0
100
AcDbSymbolTable
 70
     0
  0
ENDTAB
  0
TABLE
  2
APPID
  5
9
330
0
100
AcDbSymbolTable
 70
     2
  0
APPID
  5
12
330
9
100
AcDbSymbolTableRecord
100
AcDbRegAppTableRecord
  2
ACAD
 70
     0
  0
ENDTAB
  0
TABLE
  2
DIMSTYLE
  5
A
330
0
100
AcDbSymbolTable
 70
     1
  0
DIMSTYLE
105
27
330
A
100
AcDbSymbolTableRecord
100
AcDbDimStyleTableRecord
  2
ISO-25
 70
     0
  3

  4

  5

  6

  7

 40
1.0
 41
2.5
 42
0.625
 43
3.75
 44
1.25
 45
0.0
 46
0.0
 47
0.0
 48
0.0
140
2.5
141
2.5
142
0.0
143
0.03937007874016
144
1.0
145
0.0
146
1.0
147
0.625
 71
     0
 72
     0
 73
     0
 74
     0
 75
     0
 76
     0
 77
     1
 78
     8
170
     0
171
     3
172
     1
173
     0
174
     0
175
     0
176
     0
177
     0
178
     0
270
     2
271
     2
272
     2
273
     2
274
     3
340
11
275
     0
280
     0
281
     0
282
     0
283
     0
284
     8
285
     0
286
     0
287
     3
288
     0
  0
ENDTAB
  0
TABLE
  2
BLOCK_RECORD
  5
1
330
0
100
AcDbSymbolTable
 70
     1
  0
BLOCK_RECORD
  5
1F
330
1
100
AcDbSymbolTableRecord
100
AcDbBlockTableRecord
  2
*MODEL_SPACE
  0
BLOCK_RECORD
  5
1B
330
1
100
AcDbSymbolTableRecord
100
AcDbBlockTableRecord
  2
*PAPER_SPACE
  0
ENDTAB
  0
ENDSEC
  0
SECTION
  2
BLOCKS
  0
BLOCK
  5
20
330
1F
100
AcDbEntity
  8
0
100
AcDbBlockBegin
  2
*MODEL_SPACE
 70
     0
 10
0.0
 20
0.0
 30
0.0
  3
*MODEL_SPACE
  1

  0
ENDBLK
  5
21
330
1F
100
AcDbEntity
  8
0
100
AcDbBlockEnd
  0
BLOCK
  5
1C
330
1B
100
AcDbEntity
 67
     1
  8
0
100
AcDbBlockBegin
  2
*PAPER_SPACE
  1

  0
ENDBLK
  5
1D
330
1B
100
AcDbEntity
 67
     1
  8
0
100
AcDbBlockEnd
  0
ENDSEC
  0
SECTION
  2
ENTITIES
  0
LWPOLYLINE
  5
100
100
AcDbEntity
  8
0
 62
7
100
AcDbPolyline
 90
385
 70
1
 10
18.750392
 20
0.859276
 30
0.0
 10
18.530459
 20
0.921980
 30
0.0
 10
18.313086
 20
0.985311
 30
0.0
 10
18.098220
 20
1.049297
 30
0.0
 10
17.885806
 20
1.113968
 30
0.0
 10
17.675788
 20
1.179364
 30
0.0
 10
17.468111
 20
1.245512
 30
0.0
 10
17.262720
 20
1.312446
 30
0.0
 10
17.059561
 20
1.380199
 30
0.0
 10
16.858578
 20
1.448805
 30
0.0
 10
16.659716
 20
1.518293
 30
0.0
 10
16.462920
 20
1.588697
 30
0.0
 10
16.268135
 20
1.660051
 30
0.0
 10
16.075306
 20
1.732384
 30
0.0
 10
15.884379
 20
1.805735
 30
0.0
 10
15.695297
 20
1.880130
 30
0.0
 10
15.508006
 20
1.955605
 30
0.0
 10
15.322451
 20
2.032191
 30
0.0
 10
15.138577
 20
2.109922
 30
0.0
 10
14.956329
 20
2.188829
 30
0.0
 10
14.775651
 20
2.268946
 30
0.0
 10
14.596490
 20
2.350305
 30
0.0
 10
14.418788
 20
2.432938
 30
0.0
 10
14.242493
 20
2.516878
 30
0.0
 10
14.067548
 20
2.602157
 30
0.0
 10
13.893899
 20
2.688808
 30
0.0
 10
13.721491
 20
2.776865
 30
0.0
 10
13.550268
 20
2.866358
 30
0.0
 10
13.380175
 20
2.957321
 30
0.0
 10
13.211158
 20
3.049786
 30
0.0
 10
13.043161
 20
3.143785
 30
0.0
 10
12.876129
 20
3.239353
 30
0.0
 10
12.710008
 20
3.336520
 30
0.0
 10
12.544743
 20
3.435319
 30
0.0
 10
12.380277
 20
3.535784
 30
0.0
 10
12.216556
 20
3.637945
 30
0.0
 10
12.053526
 20
3.741837
 30
0.0
 10
11.891131
 20
3.847492
 30
0.0
 10
11.729316
 20
3.954942
 30
0.0
 10
11.568026
 20
4.064219
 30
0.0
 10
11.407207
 20
4.175357
 30
0.0
 10
11.246802
 20
4.288387
 30
0.0
 10
11.086757
 20
4.403343
 30
0.0
 10
10.927017
 20
4.520257
 30
0.0
 10
10.767527
 20
4.639161
 30
0.0
 10
10.608231
 20
4.760088
 30
0.0
 10
10.449075
 20
4.883070
 30
0.0
 10
10.290005
 20
5.008141
 30
0.0
 10
10.130964
 20
5.135332
 30
0.0
 10
9.971897
 20
5.264677
 30
0.0
 10
9.812750
 20
5.396207
 30
0.0
 10
9.653468
 20
5.529956
 30
0.0
 10
9.493996
 20
5.665955
 30
0.0
 10
9.334278
 20
5.804237
 30
0.0
 10
9.174259
 20
5.944836
 30
0.0
 10
9.013885
 20
6.087783
 30
0.0
 10
8.853100
 20
6.233111
 30
0.0
 10
8.691850
 20
6.380852
 30
0.0
 10
8.530079
 20
6.531040
 30
0.0
 10
8.367732
 20
6.683706
 30
0.0
 10
8.204754
 20
6.838883
 30
0.0
 10
8.041091
 20
6.996604
 30
0.0
 10
7.876687
 20
7.156902
 30
0.0
 10
7.711487
 20
7.319808
 30
0.0
 10
7.545436
 20
7.485355
 30
0.0
 10
7.095542
 20
7.947222
 30
0.0
 10
6.659990
 20
8.416425
 30
0.0
 10
6.238778
 20
8.892728
 30
0.0
 10
5.831907
 20
9.375896
 30
0.0
 10
5.439374
 20
9.865695
 30
0.0
 10
5.061181
 20
10.361887
 30
0.0
 10
4.697326
 20
10.864239
 30
0.0
 10
4.347808
 20
11.372514
 30
0.0
 10
4.012627
 20
11.886477
 30
0.0
 10
3.691782
 20
12.405893
 30
0.0
 10
3.385274
 20
12.930526
 30
0.0
 10
3.093100
 20
13.460141
 30
0.0
 10
2.815260
 20
13.994503
 30
0.0
 10
2.551755
 20
14.533375
 30
0.0
 10
2.302582
 20
15.076523
 30
0.0
 10
2.067742
 20
15.623712
 30
0.0
 10
1.847233
 20
16.174705
 30
0.0
 10
1.641056
 20
16.729267
 30
0.0
 10
1.449210
 20
17.287164
 30
0.0
 10
1.271693
 20
17.848159
 30
0.0
 10
1.108506
 20
18.412017
 30
0.0
 10
0.959648
 20
18.978503
 30
0.0
 10
0.825117
 20
19.547381
 30
0.0
 10
0.704914
 20
20.118416
 30
0.0
 10
0.599038
 20
20.691372
 30
0.0
 10
0.507488
 20
21.266015
 30
0.0
 10
0.430264
 20
21.842108
 30
0.0
 10
0.367364
 20
22.419416
 30
0.0
 10
0.318789
 20
22.997704
 30
0.0
 10
0.284538
 20
23.576737
 30
0.0
 10
0.264609
 20
24.156278
 30
0.0
 10
0.259003
 20
24.736093
 30
0.0
 10
0.267719
 20
25.315946
 30
0.0
 10
0.290755
 20
25.895602
 30
0.0
 10
0.328113
 20
26.474825
 30
0.0
 10
0.379790
 20
27.053379
 30
0.0
 10
0.445786
 20
27.631031
 30
0.0
 10
0.526101
 20
28.207543
 30
0.0
 10
0.620734
 20
28.782681
 30
0.0
 10
0.729684
 20
29.356210
 30
0.0
 10
0.852951
 20
29.927893
 30
0.0
 10
0.990534
 20
30.497495
 30
0.0
 10
1.142433
 20
31.064781
 30
0.0
 10
1.308646
 20
31.629516
 30
0.0
 10
1.489173
 20
32.191464
 30
0.0
 10
1.684014
 20
32.750390
 30
0.0
 10
1.893168
 20
33.306058
 30
0.0
 10
2.116634
 20
33.858232
 30
0.0
 10
2.354412
 20
34.406679
 30
0.0
 10
2.606501
 20
34.951161
 30
0.0
 10
2.872901
 20
35.491444
 30
0.0
 10
3.153610
 20
36.027292
 30
0.0
 10
3.448628
 20
36.558470
 30
0.0
 10
3.757955
 20
37.084743
 30
0.0
 10
4.081589
 20
37.605874
 30
0.0
 10
4.419531
 20
38.121629
 30
0.0
 10
4.771780
 20
38.631772
 30
0.0
 10
5.138334
 20
39.136067
 30
0.0
 10
5.519194
 20
39.634281
 30
0.0
 10
5.914358
 20
40.126175
 30
0.0
 10
6.323827
 20
40.611516
 30
0.0
 10
6.747599
 20
41.090069
 30
0.0
 10
7.185674
 20
41.561597
 30
0.0
 10
7.638051
 20
42.025865
 30
0.0
 10
8.098016
 20
42.475696
 30
0.0
 10
8.565847
 20
42.911247
 30
0.0
 10
9.041291
 20
43.332517
 30
0.0
 10
9.524094
 20
43.739507
 30
0.0
 10
10.014002
 20
44.132217
 30
0.0
 10
10.510761
 20
44.510646
 30
0.0
 10
11.014117
 20
44.874795
 30
0.0
 10
11.523818
 20
45.224664
 30
0.0
 10
12.039608
 20
45.560252
 30
0.0
 10
12.561234
 20
45.881560
 30
0.0
 10
13.088444
 20
46.188588
 30
0.0
 10
13.620981
 20
46.481335
 30
0.0
 10
14.158594
 20
46.759802
 30
0.0
 10
14.701028
 20
47.023988
 30
0.0
 10
15.248030
 20
47.273894
 30
0.0
 10
15.799345
 20
47.509520
 30
0.0
 10
16.354720
 20
47.730866
 30
0.0
 10
16.913902
 20
47.937931
 30
0.0
 10
17.476636
 20
48.130716
 30
0.0
 10
18.042669
 20
48.309220
 30
0.0
 10
18.611747
 20
48.473444
 30
0.0
 10
19.183616
 20
48.623388
 30
0.0
 10
19.758022
 20
48.759051
 30
0.0
 10
20.334713
 20
48.880434
 30
0.0
 10
20.913433
 20
48.987537
 30
0.0
 10
21.493930
 20
49.080359
 30
0.0
 10
22.075949
 20
49.158901
 30
0.0
 10
22.659237
 20
49.223163
 30
0.0
 10
23.243540
 20
49.273144
 30
0.0
 10
23.828604
 20
49.308845
 30
0.0
 10
24.414175
 20
49.330265
 30
0.0
 10
25.000001
 20
49.337406
 30
0.0
 10
25.585826
 20
49.330265
 30
0.0
 10
26.171398
 20
49.308845
 30
0.0
 10
26.756462
 20
49.273144
 30
0.0
 10
27.340765
 20
49.223163
 30
0.0
 10
27.924053
 20
49.158901
 30
0.0
 10
28.506073
 20
49.080359
 30
0.0
 10
29.086567
 20
48.987537
 30
0.0
 10
29.665289
 20
48.880434
 30
0.0
 10
30.241979
 20
48.759051
 30
0.0
 10
30.816386
 20
48.623388
 30
0.0
 10
31.388256
 20
48.473444
 30
0.0
 10
31.957332
 20
48.309220
 30
0.0
 10
32.523365
 20
48.130716
 30
0.0
 10
33.086099
 20
47.937931
 30
0.0
 10
33.645280
 20
47.730866
 30
0.0
 10
34.200657
 20
47.509520
 30
0.0
 10
34.751972
 20
47.273894
 30
0.0
 10
35.298973
 20
47.023988
 30
0.0
 10
35.841407
 20
46.759802
 30
0.0
 10
36.379020
 20
46.481335
 30
0.0
 10
36.911559
 20
46.188588
 30
0.0
 10
37.438767
 20
45.881560
 30
0.0
 10
37.960393
 20
45.560252
 30
0.0
 10
38.476185
 20
45.224664
 30
0.0
 10
38.985884
 20
44.874795
 30
0.0
 10
39.489242
 20
44.510646
 30
0.0
 10
39.986001
 20
44.132217
 30
0.0
 10
40.475908
 20
43.739507
 30
0.0
 10
40.958711
 20
43.332517
 30
0.0
 10
41.434154
 20
42.911247
 30
0.0
 10
41.901985
 20
42.475696
 30
0.0
 10
42.361951
 20
42.025865
 30
0.0
 10
42.715550
 20
41.665105
 30
0.0
 10
43.060626
 20
41.300198
 30
0.0
 10
43.397167
 20
40.931227
 30
0.0
 10
43.725155
 20
40.558270
 30
0.0
 10
44.044579
 20
40.181411
 30
0.0
 10
44.355425
 20
39.800729
 30
0.0
 10
44.657676
 20
39.416306
 30
0.0
 10
44.951320
 20
39.028222
 30
0.0
 10
45.236344
 20
38.636559
 30
0.0
 10
45.512733
 20
38.241398
 30
0.0
 10
45.780472
 20
37.842820
 30
0.0
 10
46.039549
 20
37.440906
 30
0.0
 10
46.289948
 20
37.035735
 30
0.0
 10
46.531654
 20
36.627392
 30
0.0
 10
46.764657
 20
36.215954
 30
0.0
 10
46.988939
 20
35.801505
 30
0.0
 10
47.204489
 20
35.384124
 30
0.0
 10
47.411293
 20
34.963893
 30
0.0
 10
47.609331
 20
34.540893
 30
0.0
 10
47.798598
 20
34.115205
 30
0.0
 10
47.979073
 20
33.686910
 30
0.0
 10
48.150746
 20
33.256088
 30
0.0
 10
48.313600
 20
32.822822
 30
0.0
 10
48.467622
 20
32.387192
 30
0.0
 10
48.612800
 20
31.949278
 30
0.0
 10
48.749117
 20
31.509162
 30
0.0
 10
48.876560
 20
31.066926
 30
0.0
 10
48.995116
 20
30.622649
 30
0.0
 10
49.104770
 20
30.176413
 30
0.0
 10
49.205509
 20
29.728300
 30
0.0
 10
49.297316
 20
29.278389
 30
0.0
 10
49.380182
 20
28.826763
 30
0.0
 10
49.454088
 20
28.373501
 30
0.0
 10
49.519022
 20
27.918686
 30
0.0
 10
49.574969
 20
27.462398
 30
0.0
 10
49.621920
 20
27.004718
 30
0.0
 10
49.659853
 20
26.545727
 30
0.0
 10
49.688758
 20
26.085506
 30
0.0
 10
49.708627
 20
25.624136
 30
0.0
 10
49.719436
 20
25.161698
 30
0.0
 10
49.721129
 20
24.698274
 30
0.0
 10
49.713792
 20
24.233944
 30
0.0
 10
49.697338
 20
23.768789
 30
0.0
 10
49.671769
 20
23.302890
 30
0.0
 10
49.637084
 20
22.836329
 30
0.0
 10
49.593260
 20
22.369186
 30
0.0
 10
49.540281
 20
21.901542
 30
0.0
 10
49.478133
 20
21.433478
 30
0.0
 10
49.406804
 20
20.965076
 30
0.0
 10
49.326278
 20
20.496416
 30
0.0
 10
49.236540
 20
20.027579
 30
0.0
 10
49.137578
 20
19.558647
 30
0.0
 10
49.029377
 20
19.089700
 30
0.0
 10
48.911925
 20
18.620820
 30
0.0
 10
48.785204
 20
18.152086
 30
0.0
 10
48.649204
 20
17.683582
 30
0.0
 10
48.503908
 20
17.215387
 30
0.0
 10
48.349304
 20
16.747582
 30
0.0
 10
48.185378
 20
16.280248
 30
0.0
 10
48.012113
 20
15.813467
 30
0.0
 10
47.829498
 20
15.347320
 30
0.0
 10
47.637519
 20
14.881887
 30
0.0
 10
47.436159
 20
14.417250
 30
0.0
 10
47.225407
 20
13.953489
 30
0.0
 10
47.121657
 20
13.735732
 30
0.0
 10
47.012163
 20
13.516212
 30
0.0
 10
46.897064
 20
13.295055
 30
0.0
 10
46.776490
 20
13.072389
 30
0.0
 10
46.650574
 20
12.848342
 30
0.0
 10
46.519448
 20
12.623041
 30
0.0
 10
46.383245
 20
12.396614
 30
0.0
 10
46.242100
 20
12.169188
 30
0.0
 10
46.096146
 20
11.940892
 30
0.0
 10
45.945512
 20
11.711853
 30
0.0
 10
45.790333
 20
11.482198
 30
0.0
 10
45.630742
 20
11.252055
 30
0.0
 10
45.466872
 20
11.021551
 30
0.0
 10
45.298857
 20
10.790815
 30
0.0
 10
45.126828
 20
10.559973
 30
0.0
 10
44.950916
 20
10.329154
 30
0.0
 10
44.771259
 20
10.098485
 30
0.0
 10
44.587987
 20
9.868093
 30
0.0
 10
44.401232
 20
9.638107
 30
0.0
 10
44.211130
 20
9.408653
 30
0.0
 10
44.017811
 20
9.179860
 30
0.0
 10
43.821406
 20
8.951855
 30
0.0
 10
43.622053
 20
8.724765
 30
0.0
 10
43.419880
 20
8.498719
 30
0.0
 10
43.215024
 20
8.273843
 30
0.0
 10
43.007616
 20
8.050266
 30
0.0
 10
42.797786
 20
7.828115
 30
0.0
 10
42.585674
 20
7.607518
 30
0.0
 10
42.371408
 20
7.388601
 30
0.0
 10
42.155118
 20
7.171494
 30
0.0
 10
41.936944
 20
6.956323
 30
0.0
 10
41.717014
 20
6.743216
 30
0.0
 10
41.495461
 20
6.532301
 30
0.0
 10
41.272418
 20
6.323705
 30
0.0
 10
41.048020
 20
6.117555
 30
0.0
 10
40.822400
 20
5.913980
 30
0.0
 10
40.595688
 20
5.713108
 30
0.0
 10
40.368020
 20
5.515064
 30
0.0
 10
40.139524
 20
5.319979
 30
0.0
 10
39.910337
 20
5.127978
 30
0.0
 10
39.680594
 20
4.939189
 30
0.0
 10
39.450422
 20
4.753741
 30
0.0
 10
39.219957
 20
4.571760
 30
0.0
 10
38.989330
 20
4.393374
 30
0.0
 10
38.758678
 20
4.218712
 30
0.0
 10
38.528128
 20
4.047900
 30
0.0
 10
38.297818
 20
3.881066
 30
0.0
 10
38.067880
 20
3.718337
 30
0.0
 10
37.838445
 20
3.559842
 30
0.0
 10
37.609645
 20
3.405708
 30
0.0
 10
37.381615
 20
3.256062
 30
0.0
 10
37.154488
 20
3.111033
 30
0.0
 10
36.928397
 20
2.970747
 30
0.0
 10
36.703471
 20
2.835332
 30
0.0
 10
36.479850
 20
2.704917
 30
0.0
 10
36.257659
 20
2.579627
 30
0.0
 10
36.037037
 20
2.459592
 30
0.0
 10
35.818115
 20
2.344939
 30
0.0
 10
35.601024
 20
2.235795
 30
0.0
 10
35.385897
 20
2.132288
 30
0.0
 10
35.172870
 20
2.034545
 30
0.0
 10
34.962073
 20
1.942695
 30
0.0
 10
34.753640
 20
1.856864
 30
0.0
 10
34.547703
 20
1.777181
 30
0.0
 10
34.337981
 20
1.700383
 30
0.0
 10
34.124262
 20
1.625408
 30
0.0
 10
33.906683
 20
1.552256
 30
0.0
 10
33.685384
 20
1.480941
 30
0.0
 10
33.460501
 20
1.411467
 30
0.0
 10
33.232166
 20
1.343846
 30
0.0
 10
33.000518
 20
1.278083
 30
0.0
 10
32.765692
 20
1.214185
 30
0.0
 10
32.527827
 20
1.152161
 30
0.0
 10
32.287055
 20
1.092022
 30
0.0
 10
32.043517
 20
1.033772
 30
0.0
 10
31.797346
 20
0.977420
 30
0.0
 10
31.548680
 20
0.922974
 30
0.0
 10
31.297654
 20
0.870444
 30
0.0
 10
31.044408
 20
0.819833
 30
0.0
 10
30.789073
 20
0.771152
 30
0.0
 10
30.531785
 20
0.724411
 30
0.0
 10
30.272688
 20
0.679614
 30
0.0
 10
30.011909
 20
0.636772
 30
0.0
 10
29.749589
 20
0.595890
 30
0.0
 10
29.485867
 20
0.556980
 30
0.0
 10
29.220871
 20
0.520045
 30
0.0
 10
28.954747
 20
0.485095
 30
0.0
 10
28.687624
 20
0.452140
 30
0.0
 10
28.419642
 20
0.421186
 30
0.0
 10
28.150936
 20
0.392241
 30
0.0
 10
27.881642
 20
0.365317
 30
0.0
 10
27.611897
 20
0.340425
 30
0.0
 10
27.341837
 20
0.317565
 30
0.0
 10
27.071599
 20
0.296737
 30
0.0
 10
26.801318
 20
0.277969
 30
0.0
 10
26.531131
 20
0.261233
 30
0.0
 10
26.261175
 20
0.246558
 30
0.0
 10
25.991585
 20
0.233971
 30
0.0
 10
25.722498
 20
0.223472
 30
0.0
 10
25.454050
 20
0.215062
 30
0.0
 10
25.186377
 20
0.208740
 30
0.0
 10
24.919616
 20
0.204507
 30
0.0
 10
24.653904
 20
0.202531
 30
0.0
 10
24.389375
 20
0.202542
 30
0.0
 10
24.126167
 20
0.204800
 30
0.0
 10
23.864416
 20
0.209062
 30
0.0
 10
23.604258
 20
0.215496
 30
0.0
 10
23.345829
 20
0.224076
 30
0.0
 10
23.089267
 20
0.234800
 30
0.0
 10
22.834706
 20
0.247698
 30
0.0
 10
22.582284
 20
0.262769
 30
0.0
 10
22.332137
 20
0.280041
 30
0.0
 10
22.084400
 20
0.299486
 30
0.0
 10
21.839210
 20
0.321132
 30
0.0
 10
21.596704
 20
0.344980
 30
0.0
 10
21.357018
 20
0.371057
 30
0.0
 10
21.120289
 20
0.399350
 30
0.0
 10
20.886651
 20
0.429872
 30
0.0
 10
20.656242
 20
0.462636
 30
0.0
 10
20.429198
 20
0.497645
 30
0.0
 10
20.205655
 20
0.534907
 30
0.0
 10
19.985750
 20
0.574435
 30
0.0
 10
19.769619
 20
0.616232
 30
0.0
 10
19.557398
 20
0.660307
 30
0.0
 10
19.349224
 20
0.706668
 30
0.0
 10
19.145232
 20
0.755323
 30
0.0
 10
18.945559
 20
0.806281
 30
0.0
 10
18.750392
 20
0.859276
 30
0.0
  0
LWPOLYLINE
  5
101
100
AcDbEntity
  8
0
 62
7
100
AcDbPolyline
 90
1729
 70
1
 10
14.580784
 20
19.912791
 30
0.0
 10
14.582195
 20
20.224638
 30
0.0
 10
14.583888
 20
20.532360
 30
0.0
 10
14.585835
 20
20.835911
 30
0.0
 10
14.588037
 20
21.135246
 30
0.0
 10
14.590492
 20
21.430318
 30
0.0
 10
14.593201
 20
21.721083
 30
0.0
 10
14.596179
 20
22.007495
 30
0.0
 10
14.599405
 20
22.289507
 30
0.0
 10
14.602879
 20
22.567075
 30
0.0
 10
14.606599
 20
22.840152
 30
0.0
 10
14.610561
 20
23.108693
 30
0.0
 10
14.614766
 20
23.372652
 30
0.0
 10
14.619208
 20
23.631983
 30
0.0
 10
14.623887
 20
23.886641
 30
0.0
 10
14.628798
 20
24.136580
 30
0.0
 10
14.633940
 20
24.381754
 30
0.0
 10
14.639311
 20
24.622118
 30
0.0
 10
14.644907
 20
24.857626
 30
0.0
 10
14.650727
 20
25.088231
 30
0.0
 10
14.656769
 20
25.313890
 30
0.0
 10
14.663029
 20
25.534555
 30
0.0
 10
14.669506
 20
25.750181
 30
0.0
 10
14.676195
 20
25.960723
 30
0.0
 10
14.683095
 20
26.166135
 30
0.0
 10
14.690204
 20
26.366370
 30
0.0
 10
14.697522
 20
26.561384
 30
0.0
 10
14.705043
 20
26.751130
 30
0.0
 10
14.712765
 20
26.935564
 30
0.0
 10
14.720687
 20
27.114638
 30
0.0
 10
14.728804
 20
27.288308
 30
0.0
 10
14.737115
 20
27.456528
 30
0.0
 10
14.745618
 20
27.619253
 30
0.0
 10
14.754311
 20
27.776435
 30
0.0
 10
14.763190
 20
27.928030
 30
0.0
 10
14.772252
 20
28.073993
 30
0.0
 10
14.781497
 20
28.214277
 30
0.0
 10
14.790921
 20
28.348836
 30
0.0
 10
14.800522
 20
28.477625
 30
0.0
 10
14.810298
 20
28.600599
 30
0.0
 10
14.820246
 20
28.717711
 30
0.0
 10
14.830364
 20
28.828916
 30
0.0
 10
14.840648
 20
28.934168
 30
0.0
 10
14.851096
 20
29.033422
 30
0.0
 10
14.861708
 20
29.126632
 30
0.0
 10
14.872477
 20
29.213751
 30
0.0
 10
14.883405
 20
29.294735
 30
0.0
 10
14.894488
 20
29.369538
 30
0.0
 10
14.905723
 20
29.438114
 30
0.0
 10
14.917108
 20
29.500417
 30
0.0
 10
14.928639
 20
29.556401
 30
0.0
 10
14.940318
 20
29.606022
 30
0.0
 10
14.952137
 20
29.649232
 30
0.0
 10
14.964098
 20
29.685987
 30
0.0
 10
14.976194
 20
29.716241
 30
0.0
 10
14.988425
 20
29.739949
 30
0.0
 10
15.000790
 20
29.757063
 30
0.0
 10
15.013284
 20
29.767539
 30
0.0
 10
15.025907
 20
29.771332
 30
0.0
 10
15.038655
 20
29.768394
 30
0.0
 10
15.051527
 20
29.758682
 30
0.0
 10
15.064518
 20
29.742148
 30
0.0
 10
15.077627
 20
29.718747
 30
0.0
 10
15.090852
 20
29.688434
 30
0.0
 10
15.104190
 20
29.651163
 30
0.0
 10
15.117474
 20
29.610602
 30
0.0
 10
15.132683
 20
29.563924
 30
0.0
 10
15.149786
 20
29.511220
 30
0.0
 10
15.168757
 20
29.452577
 30
0.0
 10
15.189568
 20
29.388087
 30
0.0
 10
15.212191
 20
29.317839
 30
0.0
 10
15.236595
 20
29.241922
 30
0.0
 10
15.262754
 20
29.160426
 30
0.0
 10
15.290637
 20
29.073442
 30
0.0
 10
15.320218
 20
28.981057
 30
0.0
 10
15.351468
 20
28.883363
 30
0.0
 10
15.384357
 20
28.780449
 30
0.0
 10
15.418859
 20
28.672404
 30
0.0
 10
15.454944
 20
28.559318
 30
0.0
 10
15.492585
 20
28.441281
 30
0.0
 10
15.531752
 20
28.318383
 30
0.0
 10
15.572417
 20
28.190712
 30
0.0
 10
15.614552
 20
28.058359
 30
0.0
 10
15.658129
 20
27.921414
 30
0.0
 10
15.703119
 20
27.779966
 30
0.0
 10
15.749493
 20
27.634104
 30
0.0
 10
15.797224
 20
27.483919
 30
0.0
 10
15.846282
 20
27.329499
 30
0.0
 10
15.896640
 20
27.170936
 30
0.0
 10
15.948269
 20
27.008318
 30
0.0
 10
16.001141
 20
26.841734
 30
0.0
 10
16.055227
 20
26.671276
 30
0.0
 10
16.110498
 20
26.497031
 30
0.0
 10
16.166927
 20
26.319091
 30
0.0
 10
16.224485
 20
26.137544
 30
0.0
 10
16.283144
 20
25.952481
 30
0.0
 10
16.342875
 20
25.763990
 30
0.0
 10
16.403649
 20
25.572162
 30
0.0
 10
16.465439
 20
25.377087
 30
0.0
 10
16.528216
 20
25.178853
 30
0.0
 10
16.591951
 20
24.977551
 30
0.0
 10
16.656617
 20
24.773269
 30
0.0
 10
16.722184
 20
24.566099
 30
0.0
 10
16.788625
 20
24.356130
 30
0.0
 10
16.855910
 20
24.143450
 30
0.0
 10
16.924012
 20
23.928150
 30
0.0
 10
16.992902
 20
23.710320
 30
0.0
 10
17.062552
 20
23.490049
 30
0.0
 10
17.132933
 20
23.267427
 30
0.0
 10
17.204017
 20
23.042543
 30
0.0
 10
17.275775
 20
22.815488
 30
0.0
 10
17.348180
 20
22.586350
 30
0.0
 10
17.421202
 20
22.355220
 30
0.0
 10
17.494813
 20
22.122186
 30
0.0
 10
17.568985
 20
21.887339
 30
0.0
 10
17.643690
 20
21.650769
 30
0.0
 10
17.718898
 20
21.412565
 30
0.0
 10
17.794582
 20
21.172817
 30
0.0
 10
17.870714
 20
20.931614
 30
0.0
 10
17.947264
 20
20.689046
 30
0.0
 10
18.024205
 20
20.445202
 30
0.0
 10
18.101507
 20
20.200173
 30
0.0
 10
18.179143
 20
19.954048
 30
0.0
 10
18.257084
 20
19.706917
 30
0.0
 10
18.335302
 20
19.458869
 30
0.0
 10
18.413769
 20
19.209994
 30
0.0
 10
18.492455
 20
18.960381
 30
0.0
 10
18.571333
 20
18.710121
 30
0.0
 10
18.650374
 20
18.459303
 30
0.0
 10
18.698321
 20
18.307141
 30
0.0
 10
18.746268
 20
18.154979
 30
0.0
 10
18.794216
 20
18.002817
 30
0.0
 10
18.842163
 20
17.850655
 30
0.0
 10
18.890110
 20
17.698493
 30
0.0
 10
18.938057
 20
17.546331
 30
0.0
 10
18.986004
 20
17.394169
 30
0.0
 10
19.033952
 20
17.242007
 30
0.0
 10
19.081899
 20
17.089844
 30
0.0
 10
19.129846
 20
16.937682
 30
0.0
 10
19.177794
 20
16.785520
 30
0.0
 10
19.225741
 20
16.633358
 30
0.0
 10
19.273688
 20
16.481196
 30
0.0
 10
19.321635
 20
16.329034
 30
0.0
 10
19.369583
 20
16.176872
 30
0.0
 10
19.417530
 20
16.024710
 30
0.0
 10
19.465477
 20
15.872548
 30
0.0
 10
19.513424
 20
15.720386
 30
0.0
 10
19.561372
 20
15.568224
 30
0.0
 10
19.609319
 20
15.416062
 30
0.0
 10
19.657266
 20
15.263900
 30
0.0
 10
19.705214
 20
15.111738
 30
0.0
 10
19.753161
 20
14.959576
 30
0.0
 10
19.801108
 20
14.807413
 30
0.0
 10
19.849055
 20
14.655251
 30
0.0
 10
19.897003
 20
14.503089
 30
0.0
 10
19.944950
 20
14.350927
 30
0.0
 10
19.992897
 20
14.198765
 30
0.0
 10
20.040844
 20
14.046603
 30
0.0
 10
20.088792
 20
13.894441
 30
0.0
 10
20.136739
 20
13.742279
 30
0.0
 10
20.184686
 20
13.590117
 30
0.0
 10
20.232633
 20
13.437955
 30
0.0
 10
20.280581
 20
13.285793
 30
0.0
 10
20.328528
 20
13.133631
 30
0.0
 10
20.376475
 20
12.981469
 30
0.0
 10
20.424423
 20
12.829307
 30
0.0
 10
20.472370
 20
12.677145
 30
0.0
 10
20.520317
 20
12.524983
 30
0.0
 10
20.568264
 20
12.372821
 30
0.0
 10
20.616212
 20
12.220659
 30
0.0
 10
20.664159
 20
12.068496
 30
0.0
 10
20.712106
 20
11.916334
 30
0.0
 10
20.760053
 20
11.764172
 30
0.0
 10
20.808001
 20
11.612010
 30
0.0
 10
20.855948
 20
11.459848
 30
0.0
 10
20.903895
 20
11.307686
 30
0.0
 10
20.951842
 20
11.155524
 30
0.0
 10
20.999790
 20
11.003362
 30
0.0
 10
21.047737
 20
10.851200
 30
0.0
 10
21.095684
 20
10.699038
 30
0.0
 10
21.143631
 20
10.546876
 30
0.0
 10
21.191579
 20
10.394714
 30
0.0
 10
21.239526
 20
10.242552
 30
0.0
 10
21.287473
 20
10.090390
 30
0.0
 10
21.335421
 20
9.938228
 30
0.0
 10
21.383368
 20
9.786065
 30
0.0
 10
21.431315
 20
9.633903
 30
0.0
 10
21.479262
 20
9.481742
 30
0.0
 10
21.527210
 20
9.329579
 30
0.0
 10
21.575157
 20
9.177417
 30
0.0
 10
21.623104
 20
9.025255
 30
0.0
 10
21.671051
 20
8.873093
 30
0.0
 10
21.718999
 20
8.720931
 30
0.0
 10
21.766822
 20
8.720931
 30
0.0
 10
21.814644
 20
8.720931
 30
0.0
 10
21.862467
 20
8.720931
 30
0.0
 10
21.910289
 20
8.720931
 30
0.0
 10
21.958112
 20
8.720931
 30
0.0
 10
22.005935
 20
8.720931
 30
0.0
 10
22.053758
 20
8.720931
 30
0.0
 10
22.101581
 20
8.720931
 30
0.0
 10
22.149403
 20
8.720931
 30
0.0
 10
22.197226
 20
8.720931
 30
0.0
 10
22.245049
 20
8.720931
 30
0.0
 10
22.292871
 20
8.720931
 30
0.0
 10
22.340694
 20
8.720931
 30
0.0
 10
22.388517
 20
8.720931
 30
0.0
 10
22.436340
 20
8.720931
 30
0.0
 10
22.484162
 20
8.720931
 30
0.0
 10
22.531985
 20
8.720931
 30
0.0
 10
22.579808
 20
8.720931
 30
0.0
 10
22.627630
 20
8.720931
 30
0.0
 10
22.675453
 20
8.720931
 30
0.0
 10
22.723276
 20
8.720931
 30
0.0
 10
22.771099
 20
8.720931
 30
0.0
 10
22.818921
 20
8.720931
 30
0.0
 10
22.866744
 20
8.720931
 30
0.0
 10
22.914567
 20
8.720931
 30
0.0
 10
22.962389
 20
8.720931
 30
0.0
 10
23.010212
 20
8.720931
 30
0.0
 10
23.058035
 20
8.720931
 30
0.0
 10
23.105858
 20
8.720931
 30
0.0
 10
23.153680
 20
8.720931
 30
0.0
 10
23.201503
 20
8.720931
 30
0.0
 10
23.249326
 20
8.720931
 30
0.0
 10
23.297148
 20
8.720931
 30
0.0
 10
23.344971
 20
8.720931
 30
0.0
 10
23.392794
 20
8.720931
 30
0.0
 10
23.440617
 20
8.720931
 30
0.0
 10
23.488439
 20
8.720931
 30
0.0
 10
23.536262
 20
8.720931
 30
0.0
 10
23.584085
 20
8.720931
 30
0.0
 10
23.631907
 20
8.720931
 30
0.0
 10
23.679730
 20
8.720931
 30
0.0
 10
23.727553
 20
8.720931
 30
0.0
 10
23.775376
 20
8.720931
 30
0.0
 10
23.823198
 20
8.720931
 30
0.0
 10
23.871021
 20
8.720931
 30
0.0
 10
23.918844
 20
8.720931
 30
0.0
 10
23.966666
 20
8.720931
 30
0.0
 10
24.014489
 20
8.720931
 30
0.0
 10
24.062312
 20
8.720931
 30
0.0
 10
24.110135
 20
8.720931
 30
0.0
 10
24.157957
 20
8.720931
 30
0.0
 10
24.205780
 20
8.720931
 30
0.0
 10
24.253603
 20
8.720931
 30
0.0
 10
24.301425
 20
8.720931
 30
0.0
 10
24.349248
 20
8.720931
 30
0.0
 10
24.397071
 20
8.720931
 30
0.0
 10
24.444894
 20
8.720931
 30
0.0
 10
24.492717
 20
8.720931
 30
0.0
 10
24.540539
 20
8.720931
 30
0.0
 10
24.588362
 20
8.720931
 30
0.0
 10
24.636184
 20
8.720931
 30
0.0
 10
24.684007
 20
8.720931
 30
0.0
 10
24.731830
 20
8.720931
 30
0.0
 10
24.779653
 20
8.720931
 30
0.0
 10
24.827476
 20
8.720931
 30
0.0
 10
24.875298
 20
8.720931
 30
0.0
 10
24.923121
 20
8.720931
 30
0.0
 10
24.970943
 20
8.720931
 30
0.0
 10
25.018766
 20
8.720931
 30
0.0
 10
25.066589
 20
8.720931
 30
0.0
 10
25.114412
 20
8.720931
 30
0.0
 10
25.162235
 20
8.720931
 30
0.0
 10
25.210057
 20
8.720931
 30
0.0
 10
25.257880
 20
8.720931
 30
0.0
 10
25.305703
 20
8.720931
 30
0.0
 10
25.353525
 20
8.720931
 30
0.0
 10
25.401348
 20
8.720931
 30
0.0
 10
25.449171
 20
8.720931
 30
0.0
 10
25.496993
 20
8.720931
 30
0.0
 10
25.544816
 20
8.720931
 30
0.0
 10
25.592639
 20
8.720931
 30
0.0
 10
25.640462
 20
8.720931
 30
0.0
 10
25.688284
 20
8.720931
 30
0.0
 10
25.736107
 20
8.720931
 30
0.0
 10
25.783930
 20
8.720931
 30
0.0
 10
25.831752
 20
8.720931
 30
0.0
 10
25.879575
 20
8.720931
 30
0.0
 10
25.927398
 20
8.720931
 30
0.0
 10
25.975221
 20
8.720931
 30
0.0
 10
26.023043
 20
8.720931
 30
0.0
 10
26.070866
 20
8.720931
 30
0.0
 10
26.118689
 20
8.720931
 30
0.0
 10
26.166511
 20
8.720931
 30
0.0
 10
26.214334
 20
8.720931
 30
0.0
 10
26.262157
 20
8.720931
 30
0.0
 10
26.309980
 20
8.720931
 30
0.0
 10
26.357802
 20
8.720931
 30
0.0
 10
26.405625
 20
8.720931
 30
0.0
 10
26.453448
 20
8.720931
 30
0.0
 10
26.501270
 20
8.720931
 30
0.0
 10
26.549093
 20
8.720931
 30
0.0
 10
26.596916
 20
8.720931
 30
0.0
 10
26.644739
 20
8.720931
 30
0.0
 10
26.692561
 20
8.720931
 30
0.0
 10
26.740384
 20
8.720931
 30
0.0
 10
26.788207
 20
8.720931
 30
0.0
 10
26.836029
 20
8.720931
 30
0.0
 10
26.883852
 20
8.720931
 30
0.0
 10
26.931675
 20
8.720931
 30
0.0
 10
26.979498
 20
8.720931
 30
0.0
 10
27.027320
 20
8.720931
 30
0.0
 10
27.075143
 20
8.720931
 30
0.0
 10
27.122966
 20
8.720931
 30
0.0
 10
27.170788
 20
8.720931
 30
0.0
 10
27.218611
 20
8.720931
 30
0.0
 10
27.266434
 20
8.720931
 30
0.0
 10
27.314257
 20
8.720931
 30
0.0
 10
27.362079
 20
8.720931
 30
0.0
 10
27.409902
 20
8.720931
 30
0.0
 10
27.457725
 20
8.720931
 30
0.0
 10
27.505547
 20
8.720931
 30
0.0
 10
27.553370
 20
8.720931
 30
0.0
 10
27.601193
 20
8.720931
 30
0.0
 10
27.649016
 20
8.720931
 30
0.0
 10
27.696838
 20
8.720931
 30
0.0
 10
27.744661
 20
8.720931
 30
0.0
 10
27.792484
 20
8.720931
 30
0.0
 10
27.840306
 20
8.720931
 30
0.0
 10
27.885001
 20
8.859467
 30
0.0
 10
27.929697
 20
8.998002
 30
0.0
 10
27.974392
 20
9.136538
 30
0.0
 10
28.019087
 20
9.275074
 30
0.0
 10
28.063782
 20
9.413609
 30
0.0
 10
28.108477
 20
9.552145
 30
0.0
 10
28.153172
 20
9.690680
 30
0.0
 10
28.197867
 20
9.829216
 30
0.0
 10
28.242561
 20
9.967752
 30
0.0
 10
28.287257
 20
10.106287
 30
0.0
 10
28.331952
 20
10.244823
 30
0.0
 10
28.376648
 20
10.383358
 30
0.0
 10
28.421344
 20
10.521894
 30
0.0
 10
28.466039
 20
10.660430
 30
0.0
 10
28.510732
 20
10.798965
 30
0.0
 10
28.555427
 20
10.937501
 30
0.0
 10
28.600123
 20
11.076036
 30
0.0
 10
28.644818
 20
11.214572
 30
0.0
 10
28.689514
 20
11.353108
 30
0.0
 10
28.734209
 20
11.491643
 30
0.0
 10
28.778905
 20
11.630179
 30
0.0
 10
28.823598
 20
11.768714
 30
0.0
 10
28.868293
 20
11.907250
 30
0.0
 10
28.912989
 20
12.045786
 30
0.0
 10
28.957684
 20
12.184321
 30
0.0
 10
29.002380
 20
12.322857
 30
0.0
 10
29.047075
 20
12.461392
 30
0.0
 10
29.091768
 20
12.599928
 30
0.0
 10
29.136464
 20
12.738464
 30
0.0
 10
29.181159
 20
12.876999
 30
0.0
 10
29.225855
 20
13.015535
 30
0.0
 10
29.270550
 20
13.154070
 30
0.0
 10
29.315246
 20
13.292606
 30
0.0
 10
29.359941
 20
13.431142
 30
0.0
 10
29.404634
 20
13.569677
 30
0.0
 10
29.449330
 20
13.708213
 30
0.0
 10
29.494025
 20
13.846749
 30
0.0
 10
29.538721
 20
13.985284
 30
0.0
 10
29.583416
 20
14.123820
 30
0.0
 10
29.628112
 20
14.262355
 30
0.0
 10
29.672804
 20
14.400891
 30
0.0
 10
29.717500
 20
14.539427
 30
0.0
 10
29.762195
 20
14.677962
 30
0.0
 10
29.806891
 20
14.816498
 30
0.0
 10
29.851587
 20
14.955033
 30
0.0
 10
29.896282
 20
15.093569
 30
0.0
 10
29.940978
 20
15.232105
 30
0.0
 10
29.985670
 20
15.370640
 30
0.0
 10
30.030366
 20
15.509176
 30
0.0
 10
30.075061
 20
15.647711
 30
0.0
 10
30.119757
 20
15.786247
 30
0.0
 10
30.164452
 20
15.924783
 30
0.0
 10
30.209148
 20
16.063318
 30
0.0
 10
30.253843
 20
16.201854
 30
0.0
 10
30.298536
 20
16.340390
 30
0.0
 10
30.343232
 20
16.478925
 30
0.0
 10
30.387927
 20
16.617461
 30
0.0
 10
30.432623
 20
16.755996
 30
0.0
 10
30.477318
 20
16.894532
 30
0.0
 10
30.522014
 20
17.033068
 30
0.0
 10
30.566707
 20
17.171603
 30
0.0
 10
30.611402
 20
17.310139
 30
0.0
 10
30.656098
 20
17.448674
 30
0.0
 10
30.700793
 20
17.587210
 30
0.0
 10
30.774524
 20
17.815800
 30
0.0
 10
30.848206
 20
18.044346
 30
0.0
 10
30.921810
 20
18.272760
 30
0.0
 10
30.995306
 20
18.500954
 30
0.0
 10
31.068673
 20
18.728842
 30
0.0
 10
31.141875
 20
18.956336
 30
0.0
 10
31.214889
 20
19.183347
 30
0.0
 10
31.287688
 20
19.409791
 30
0.0
 10
31.360242
 20
19.635578
 30
0.0
 10
31.432525
 20
19.860622
 30
0.0
 10
31.504508
 20
20.084836
 30
0.0
 10
31.576165
 20
20.308131
 30
0.0
 10
31.647465
 20
20.530421
 30
0.0
 10
31.718382
 20
20.751618
 30
0.0
 10
31.788887
 20
20.971635
 30
0.0
 10
31.858957
 20
21.190385
 30
0.0
 10
31.928559
 20
21.407780
 30
0.0
 10
31.997666
 20
21.623733
 30
0.0
 10
32.066255
 20
21.838157
 30
0.0
 10
32.134293
 20
22.050965
 30
0.0
 10
32.201753
 20
22.262068
 30
0.0
 10
32.268608
 20
22.471380
 30
0.0
 10
32.334832
 20
22.678813
 30
0.0
 10
32.400395
 20
22.884281
 30
0.0
 10
32.465272
 20
23.087695
 30
0.0
 10
32.529429
 20
23.288968
 30
0.0
 10
32.592848
 20
23.488014
 30
0.0
 10
32.655493
 20
23.684744
 30
0.0
 10
32.717339
 20
23.879072
 30
0.0
 10
32.778358
 20
24.070910
 30
0.0
 10
32.838522
 20
24.260170
 30
0.0
 10
32.897806
 20
24.446767
 30
0.0
 10
32.956178
 20
24.630611
 30
0.0
 10
33.013613
 20
24.811615
 30
0.0
 10
33.070083
 20
24.989694
 30
0.0
 10
33.125562
 20
25.164758
 30
0.0
 10
33.180017
 20
25.336722
 30
0.0
 10
33.233424
 20
25.505496
 30
0.0
 10
33.285757
 20
25.670995
 30
0.0
 10
33.336983
 20
25.833130
 30
0.0
 10
33.387077
 20
25.991815
 30
0.0
 10
33.436015
 20
26.146963
 30
0.0
 10
33.483764
 20
26.298485
 30
0.0
 10
33.530297
 20
26.446294
 30
0.0
 10
33.575591
 20
26.590304
 30
0.0
 10
33.619609
 20
26.730426
 30
0.0
 10
33.662332
 20
26.866575
 30
0.0
 10
33.703731
 20
26.998660
 30
0.0
 10
33.743772
 20
27.126598
 30
0.0
 10
33.782434
 20
27.250298
 30
0.0
 10
33.819687
 20
27.369675
 30
0.0
 10
33.855504
 20
27.484641
 30
0.0
 10
33.889853
 20
27.595108
 30
0.0
 10
33.922713
 20
27.700989
 30
0.0
 10
33.954053
 20
27.802197
 30
0.0
 10
33.983845
 20
27.898645
 30
0.0
 10
34.012067
 20
27.990245
 30
0.0
 10
34.038681
 20
28.076910
 30
0.0
 10
34.063657
 20
28.158553
 30
0.0
 10
34.086969
 20
28.235086
 30
0.0
 10
34.108615
 20
28.306421
 30
0.0
 10
34.128540
 20
28.372473
 30
0.0
 10
34.146715
 20
28.433152
 30
0.0
 10
34.163141
 20
28.488373
 30
0.0
 10
34.184928
 20
28.560235
 30
0.0
 10
34.206236
 20
28.626852
 30
0.0
 10
34.227092
 20
28.688155
 30
0.0
 10
34.247469
 20
28.744073
 30
0.0
 10
34.267393
 20
28.794539
 30
0.0
 10
34.286867
 20
28.839481
 30
0.0
 10
34.305917
 20
28.878831
 30
0.0
 10
34.324515
 20
28.912520
 30
0.0
 10
34.342690
 20
28.940477
 30
0.0
 10
34.360414
 20
28.962634
 30
0.0
 10
34.377742
 20
28.978922
 30
0.0
 10
34.394647
 20
28.989270
 30
0.0
 10
34.411129
 20
28.993610
 30
0.0
 10
34.427216
 20
28.991871
 30
0.0
 10
34.442879
 20
28.983986
 30
0.0
 10
34.458147
 20
28.969884
 30
0.0
 10
34.473021
 20
28.949495
 30
0.0
 10
34.487499
 20
28.922752
 30
0.0
 10
34.501610
 20
28.889583
 30
0.0
 10
34.515354
 20
28.849920
 30
0.0
 10
34.528703
 20
28.803694
 30
0.0
 10
34.541685
 20
28.750834
 30
0.0
 10
34.554329
 20
28.691272
 30
0.0
 10
34.566605
 20
28.624938
 30
0.0
 10
34.578515
 20
28.551763
 30
0.0
 10
34.590086
 20
28.471677
 30
0.0
 10
34.601319
 20
28.384612
 30
0.0
 10
34.612213
 20
28.290497
 30
0.0
 10
34.622768
 20
28.189263
 30
0.0
 10
34.633012
 20
28.080841
 30
0.0
 10
34.642947
 20
27.965161
 30
0.0
 10
34.652542
 20
27.842155
 30
0.0
 10
34.661827
 20
27.711752
 30
0.0
 10
34.670802
 20
27.573884
 30
0.0
 10
34.679494
 20
27.428480
 30
0.0
 10
34.687876
 20
27.275472
 30
0.0
 10
34.695976
 20
27.114790
 30
0.0
 10
34.703794
 20
26.946364
 30
0.0
 10
34.711329
 20
26.770126
 30
0.0
 10
34.718610
 20
26.586006
 30
0.0
 10
34.725609
 20
26.393935
 30
0.0
 10
34.732355
 20
26.193843
 30
0.0
 10
34.738817
 20
25.985660
 30
0.0
 10
34.745055
 20
25.769318
 30
0.0
 10
34.751038
 20
25.544747
 30
0.0
 10
34.756767
 20
25.311877
 30
0.0
 10
34.762270
 20
25.070640
 30
0.0
 10
34.767548
 20
24.820965
 30
0.0
 10
34.772571
 20
24.562784
 30
0.0
 10
34.777369
 20
24.296027
 30
0.0
 10
34.781969
 20
24.020624
 30
0.0
 10
34.786344
 20
23.736507
 30
0.0
 10
34.790521
 20
23.443606
 30
0.0
 10
34.794500
 20
23.141851
 30
0.0
 10
34.798282
 20
22.831173
 30
0.0
 10
34.801866
 20
22.511503
 30
0.0
 10
34.805253
 20
22.182771
 30
0.0
 10
34.808470
 20
21.844908
 30
0.0
 10
34.811518
 20
21.497845
 30
0.0
 10
34.814397
 20
21.141512
 30
0.0
 10
34.817219
 20
20.775840
 30
0.0
 10
34.819759
 20
20.400758
 30
0.0
 10
34.822017
 20
20.016199
 30
0.0
 10
34.824274
 20
19.622093
 30
0.0
 10
34.825121
 20
19.451762
 30
0.0
 10
34.825968
 20
19.281431
 30
0.0
 10
34.826814
 20
19.111101
 30
0.0
 10
34.827661
 20
18.940770
 30
0.0
 10
34.828508
 20
18.770440
 30
0.0
 10
34.829354
 20
18.600109
 30
0.0
 10
34.830201
 20
18.429778
 30
0.0
 10
34.831048
 20
18.259448
 30
0.0
 10
34.831894
 20
18.089117
 30
0.0
 10
34.832741
 20
17.918786
 30
0.0
 10
34.833588
 20
17.748456
 30
0.0
 10
34.834434
 20
17.578125
 30
0.0
 10
34.835281
 20
17.407794
 30
0.0
 10
34.836128
 20
17.237464
 30
0.0
 10
34.836974
 20
17.067133
 30
0.0
 10
34.837821
 20
16.896802
 30
0.0
 10
34.838668
 20
16.726472
 30
0.0
 10
34.839514
 20
16.556141
 30
0.0
 10
34.840361
 20
16.385810
 30
0.0
 10
34.841208
 20
16.215480
 30
0.0
 10
34.842054
 20
16.045149
 30
0.0
 10
34.842901
 20
15.874818
 30
0.0
 10
34.843748
 20
15.704488
 30
0.0
 10
34.844594
 20
15.534157
 30
0.0
 10
34.845441
 20
15.363826
 30
0.0
 10
34.846288
 20
15.193496
 30
0.0
 10
34.847134
 20
15.023165
 30
0.0
 10
34.847981
 20
14.852834
 30
0.0
 10
34.848828
 20
14.682504
 30
0.0
 10
34.849674
 20
14.512173
 30
0.0
 10
34.850521
 20
14.341842
 30
0.0
 10
34.851368
 20
14.171512
 30
0.0
 10
34.852214
 20
14.001181
 30
0.0
 10
34.853061
 20
13.830850
 30
0.0
 10
34.853908
 20
13.660520
 30
0.0
 10
34.854754
 20
13.490189
 30
0.0
 10
34.855601
 20
13.319858
 30
0.0
 10
34.856448
 20
13.149528
 30
0.0
 10
34.857294
 20
12.979197
 30
0.0
 10
34.858141
 20
12.808866
 30
0.0
 10
34.858988
 20
12.638536
 30
0.0
 10
34.859834
 20
12.468205
 30
0.0
 10
34.860681
 20
12.297874
 30
0.0
 10
34.861528
 20
12.127544
 30
0.0
 10
34.862374
 20
11.957213
 30
0.0
 10
34.863221
 20
11.786882
 30
0.0
 10
34.864068
 20
11.616552
 30
0.0
 10
34.864914
 20
11.446221
 30
0.0
 10
34.865761
 20
11.275891
 30
0.0
 10
34.866608
 20
11.105560
 30
0.0
 10
34.867454
 20
10.935229
 30
0.0
 10
34.868301
 20
10.764898
 30
0.0
 10
34.869148
 20
10.594568
 30
0.0
 10
34.869994
 20
10.424237
 30
0.0
 10
34.870841
 20
10.253907
 30
0.0
 10
34.871688
 20
10.083576
 30
0.0
 10
34.872534
 20
9.913245
 30
0.0
 10
34.873381
 20
9.742914
 30
0.0
 10
34.874228
 20
9.572584
 30
0.0
 10
34.875074
 20
9.402253
 30
0.0
 10
34.875921
 20
9.231923
 30
0.0
 10
34.876768
 20
9.061592
 30
0.0
 10
34.877614
 20
8.891261
 30
0.0
 10
34.878461
 20
8.720930
 30
0.0
 10
34.928426
 20
8.720930
 30
0.0
 10
34.978387
 20
8.720930
 30
0.0
 10
35.028352
 20
8.720930
 30
0.0
 10
35.078317
 20
8.720930
 30
0.0
 10
35.128278
 20
8.720930
 30
0.0
 10
35.178243
 20
8.720930
 30
0.0
 10
35.228208
 20
8.720930
 30
0.0
 10
35.278170
 20
8.720930
 30
0.0
 10
35.328134
 20
8.720930
 30
0.0
 10
35.378099
 20
8.720930
 30
0.0
 10
35.428061
 20
8.720930
 30
0.0
 10
35.478025
 20
8.720930
 30
0.0
 10
35.527990
 20
8.720930
 30
0.0
 10
35.577952
 20
8.720930
 30
0.0
 10
35.627916
 20
8.720930
 30
0.0
 10
35.677881
 20
8.720930
 30
0.0
 10
35.727843
 20
8.720930
 30
0.0
 10
35.777807
 20
8.720930
 30
0.0
 10
35.827769
 20
8.720930
 30
0.0
 10
35.877734
 20
8.720930
 30
0.0
 10
35.927698
 20
8.720930
 30
0.0
 10
35.977660
 20
8.720930
 30
0.0
 10
36.027625
 20
8.720930
 30
0.0
 10
36.077589
 20
8.720930
 30
0.0
 10
36.127551
 20
8.720930
 30
0.0
 10
36.177516
 20
8.720930
 30
0.0
 10
36.227480
 20
8.720930
 30
0.0
 10
36.277442
 20
8.720930
 30
0.0
 10
36.327407
 20
8.720930
 30
0.0
 10
36.377371
 20
8.720930
 30
0.0
 10
36.427333
 20
8.720930
 30
0.0
 10
36.477298
 20
8.720930
 30
0.0
 10
36.527262
 20
8.720930
 30
0.0
 10
36.577224
 20
8.720930
 30
0.0
 10
36.627189
 20
8.720930
 30
0.0
 10
36.677154
 20
8.720930
 30
0.0
 10
36.727115
 20
8.720930
 30
0.0
 10
36.777080
 20
8.720930
 30
0.0
 10
36.827045
 20
8.720930
 30
0.0
 10
36.877006
 20
8.720930
 30
0.0
 10
36.926971
 20
8.720930
 30
0.0
 10
36.976936
 20
8.720930
 30
0.0
 10
37.026897
 20
8.720930
 30
0.0
 10
37.076862
 20
8.720930
 30
0.0
 10
37.126827
 20
8.720930
 30
0.0
 10
37.176788
 20
8.720930
 30
0.0
 10
37.226753
 20
8.720930
 30
0.0
 10
37.276715
 20
8.720930
 30
0.0
 10
37.326680
 20
8.720930
 30
0.0
 10
37.376644
 20
8.720930
 30
0.0
 10
37.426606
 20
8.720930
 30
0.0
 10
37.476571
 20
8.720930
 30
0.0
 10
37.526535
 20
8.720930
 30
0.0
 10
37.576497
 20
8.720930
 30
0.0
 10
37.626462
 20
8.720930
 30
0.0
 10
37.676426
 20
8.720930
 30
0.0
 10
37.726388
 20
8.720930
 30
0.0
 10
37.776353
 20
8.720930
 30
0.0
 10
37.826317
 20
8.720930
 30
0.0
 10
37.876279
 20
8.720930
 30
0.0
 10
37.926244
 20
8.720930
 30
0.0
 10
37.976208
 20
8.720930
 30
0.0
 10
38.026170
 20
8.720930
 30
0.0
 10
38.076135
 20
8.720930
 30
0.0
 10
38.126099
 20
8.720930
 30
0.0
 10
38.176061
 20
8.720930
 30
0.0
 10
38.226026
 20
8.720930
 30
0.0
 10
38.275990
 20
8.720930
 30
0.0
 10
38.325952
 20
8.720930
 30
0.0
 10
38.375917
 20
8.720930
 30
0.0
 10
38.425881
 20
8.720930
 30
0.0
 10
38.475843
 20
8.720930
 30
0.0
 10
38.525808
 20
8.720930
 30
0.0
 10
38.575772
 20
8.720930
 30
0.0
 10
38.625734
 20
8.720930
 30
0.0
 10
38.675699
 20
8.720930
 30
0.0
 10
38.725664
 20
8.720930
 30
0.0
 10
38.775625
 20
8.720930
 30
0.0
 10
38.825590
 20
8.720930
 30
0.0
 10
38.875555
 20
8.720930
 30
0.0
 10
38.925516
 20
8.720930
 30
0.0
 10
38.975481
 20
8.720930
 30
0.0
 10
39.025446
 20
8.720930
 30
0.0
 10
39.075407
 20
8.720930
 30
0.0
 10
39.125372
 20
8.720930
 30
0.0
 10
39.175337
 20
8.720930
 30
0.0
 10
39.225298
 20
8.720930
 30
0.0
 10
39.275263
 20
8.720930
 30
0.0
 10
39.325228
 20
8.720930
 30
0.0
 10
39.375190
 20
8.720930
 30
0.0
 10
39.425154
 20
8.720930
 30
0.0
 10
39.475119
 20
8.720930
 30
0.0
 10
39.525081
 20
8.720930
 30
0.0
 10
39.575045
 20
8.720930
 30
0.0
 10
39.625010
 20
8.720930
 30
0.0
 10
39.674974
 20
8.720930
 30
0.0
 10
39.724936
 20
8.720930
 30
0.0
 10
39.774901
 20
8.720930
 30
0.0
 10
39.824865
 20
8.720930
 30
0.0
 10
39.874827
 20
8.720930
 30
0.0
 10
39.924792
 20
8.720930
 30
0.0
 10
39.974757
 20
8.720930
 30
0.0
 10
40.024718
 20
8.720930
 30
0.0
 10
40.074683
 20
8.720930
 30
0.0
 10
40.124648
 20
8.720930
 30
0.0
 10
40.174609
 20
8.720930
 30
0.0
 10
40.224574
 20
8.720930
 30
0.0
 10
40.274539
 20
8.720930
 30
0.0
 10
40.324500
 20
8.720930
 30
0.0
 10
40.374465
 20
8.720930
 30
0.0
 10
40.424430
 20
8.720930
 30
0.0
 10
40.474391
 20
8.720930
 30
0.0
 10
40.524356
 20
8.720930
 30
0.0
 10
40.574321
 20
8.720930
 30
0.0
 10
40.624282
 20
8.720930
 30
0.0
 10
40.674247
 20
8.720930
 30
0.0
 10
40.724212
 20
8.720930
 30
0.0
 10
40.774174
 20
8.720930
 30
0.0
 10
40.824138
 20
8.720930
 30
0.0
 10
40.874103
 20
8.720930
 30
0.0
 10
40.924065
 20
8.720930
 30
0.0
 10
40.974029
 20
8.720930
 30
0.0
 10
41.023994
 20
8.720930
 30
0.0
 10
41.073956
 20
8.720930
 30
0.0
 10
41.123920
 20
8.720930
 30
0.0
 10
41.173885
 20
8.720930
 30
0.0
 10
41.223847
 20
8.720930
 30
0.0
 10
41.273811
 20
8.720930
 30
0.0
 10
41.273811
 20
8.970749
 30
0.0
 10
41.273811
 20
9.220567
 30
0.0
 10
41.273811
 20
9.470385
 30
0.0
 10
41.273811
 20
9.720204
 30
0.0
 10
41.273811
 20
9.970022
 30
0.0
 10
41.273811
 20
10.219840
 30
0.0
 10
41.273811
 20
10.469659
 30
0.0
 10
41.273811
 20
10.719477
 30
0.0
 10
41.273811
 20
10.969295
 30
0.0
 10
41.273811
 20
11.219114
 30
0.0
 10
41.273811
 20
11.468932
 30
0.0
 10
41.273811
 20
11.718750
 30
0.0
 10
41.273811
 20
11.968569
 30
0.0
 10
41.273811
 20
12.218387
 30
0.0
 10
41.273811
 20
12.468205
 30
0.0
 10
41.273811
 20
12.718023
 30
0.0
 10
41.273811
 20
12.967842
 30
0.0
 10
41.273811
 20
13.217660
 30
0.0
 10
41.273811
 20
13.467478
 30
0.0
 10
41.273811
 20
13.717297
 30
0.0
 10
41.273811
 20
13.967115
 30
0.0
 10
41.273811
 20
14.216933
 30
0.0
 10
41.273811
 20
14.466752
 30
0.0
 10
41.273811
 20
14.716570
 30
0.0
 10
41.273811
 20
14.966388
 30
0.0
 10
41.273811
 20
15.216207
 30
0.0
 10
41.273811
 20
15.466025
 30
0.0
 10
41.273811
 20
15.715843
 30
0.0
 10
41.273811
 20
15.965662
 30
0.0
 10
41.273811
 20
16.215480
 30
0.0
 10
41.273811
 20
16.465298
 30
0.0
 10
41.273811
 20
16.715117
 30
0.0
 10
41.273811
 20
16.964935
 30
0.0
 10
41.273811
 20
17.214753
 30
0.0
 10
41.273811
 20
17.464571
 30
0.0
 10
41.273811
 20
17.714389
 30
0.0
 10
41.273811
 20
17.964208
 30
0.0
 10
41.273811
 20
18.214026
 30
0.0
 10
41.273811
 20
18.463844
 30
0.0
 10
41.273811
 20
18.713663
 30
0.0
 10
41.273811
 20
18.963481
 30
0.0
 10
41.273811
 20
19.213299
 30
0.0
 10
41.273811
 20
19.463118
 30
0.0
 10
41.273811
 20
19.712936
 30
0.0
 10
41.273811
 20
19.962754
 30
0.0
 10
41.273811
 20
20.212573
 30
0.0
 10
41.273811
 20
20.462391
 30
0.0
 10
41.273811
 20
20.712209
 30
0.0
 10
41.273811
 20
20.962028
 30
0.0
 10
41.273811
 20
21.211846
 30
0.0
 10
41.273811
 20
21.461664
 30
0.0
 10
41.273811
 20
21.711482
 30
0.0
 10
41.273811
 20
21.961301
 30
0.0
 10
41.273811
 20
22.211119
 30
0.0
 10
41.273811
 20
22.460937
 30
0.0
 10
41.273811
 20
22.710756
 30
0.0
 10
41.273811
 20
22.960574
 30
0.0
 10
41.273811
 20
23.210392
 30
0.0
 10
41.273811
 20
23.460211
 30
0.0
 10
41.273811
 20
23.710029
 30
0.0
 10
41.273811
 20
23.959847
 30
0.0
 10
41.273811
 20
24.209666
 30
0.0
 10
41.273811
 20
24.459484
 30
0.0
 10
41.273811
 20
24.709302
 30
0.0
 10
41.273811
 20
24.959121
 30
0.0
 10
41.273811
 20
25.208939
 30
0.0
 10
41.273811
 20
25.458757
 30
0.0
 10
41.273811
 20
25.708576
 30
0.0
 10
41.273811
 20
25.958394
 30
0.0
 10
41.273811
 20
26.208212
 30
0.0
 10
41.273811
 20
26.458030
 30
0.0
 10
41.273811
 20
26.707849
 30
0.0
 10
41.273811
 20
26.957667
 30
0.0
 10
41.273811
 20
27.207485
 30
0.0
 10
41.273811
 20
27.457304
 30
0.0
 10
41.273811
 20
27.707122
 30
0.0
 10
41.273811
 20
27.956940
 30
0.0
 10
41.273811
 20
28.206759
 30
0.0
 10
41.273811
 20
28.456577
 30
0.0
 10
41.273811
 20
28.706395
 30
0.0
 10
41.273811
 20
28.956213
 30
0.0
 10
41.273811
 20
29.206032
 30
0.0
 10
41.273811
 20
29.455850
 30
0.0
 10
41.273811
 20
29.705668
 30
0.0
 10
41.273811
 20
29.955487
 30
0.0
 10
41.273811
 20
30.205305
 30
0.0
 10
41.273811
 20
30.455123
 30
0.0
 10
41.273811
 20
30.704942
 30
0.0
 10
41.273811
 20
30.954760
 30
0.0
 10
41.273811
 20
31.204578
 30
0.0
 10
41.273811
 20
31.454397
 30
0.0
 10
41.273811
 20
31.704215
 30
0.0
 10
41.273811
 20
31.954033
 30
0.0
 10
41.273811
 20
32.203852
 30
0.0
 10
41.273811
 20
32.453670
 30
0.0
 10
41.273811
 20
32.703488
 30
0.0
 10
41.273811
 20
32.953306
 30
0.0
 10
41.273811
 20
33.203125
 30
0.0
 10
41.273811
 20
33.452943
 30
0.0
 10
41.273811
 20
33.702761
 30
0.0
 10
41.273811
 20
33.952580
 30
0.0
 10
41.273811
 20
34.202398
 30
0.0
 10
41.273811
 20
34.452216
 30
0.0
 10
41.273811
 20
34.702035
 30
0.0
 10
41.273811
 20
34.951853
 30
0.0
 10
41.273811
 20
35.201671
 30
0.0
 10
41.273811
 20
35.451489
 30
0.0
 10
41.273811
 20
35.701308
 30
0.0
 10
41.273811
 20
35.951126
 30
0.0
 10
41.273811
 20
36.200944
 30
0.0
 10
41.273811
 20
36.450763
 30
0.0
 10
41.273811
 20
36.700581
 30
0.0
 10
41.273811
 20
36.950399
 30
0.0
 10
41.273811
 20
37.200218
 30
0.0
 10
41.273811
 20
37.450036
 30
0.0
 10
41.273811
 20
37.699854
 30
0.0
 10
41.273811
 20
37.949673
 30
0.0
 10
41.273811
 20
38.199491
 30
0.0
 10
41.273811
 20
38.449309
 30
0.0
 10
41.273811
 20
38.699128
 30
0.0
 10
41.273811
 20
38.948946
 30
0.0
 10
41.273811
 20
39.198764
 30
0.0
 10
41.273811
 20
39.448582
 30
0.0
 10
41.273811
 20
39.698401
 30
0.0
 10
41.273811
 20
39.948219
 30
0.0
 10
41.273811
 20
40.198037
 30
0.0
 10
41.273811
 20
40.447856
 30
0.0
 10
41.273811
 20
40.697674
 30
0.0
 10
41.201565
 20
40.697674
 30
0.0
 10
41.129316
 20
40.697674
 30
0.0
 10
41.057070
 20
40.697674
 30
0.0
 10
40.984821
 20
40.697674
 30
0.0
 10
40.912575
 20
40.697674
 30
0.0
 10
40.840326
 20
40.697674
 30
0.0
 10
40.768080
 20
40.697674
 30
0.0
 10
40.695831
 20
40.697674
 30
0.0
 10
40.623585
 20
40.697674
 30
0.0
 10
40.551337
 20
40.697674
 30
0.0
 10
40.479090
 20
40.697674
 30
0.0
 10
40.406842
 20
40.697674
 30
0.0
 10
40.334595
 20
40.697674
 30
0.0
 10
40.262347
 20
40.697674
 30
0.0
 10
40.190101
 20
40.697674
 30
0.0
 10
40.117852
 20
40.697674
 30
0.0
 10
40.045606
 20
40.697674
 30
0.0
 10
39.973357
 20
40.697674
 30
0.0
 10
39.901111
 20
40.697674
 30
0.0
 10
39.828862
 20
40.697674
 30
0.0
 10
39.756616
 20
40.697674
 30
0.0
 10
39.684367
 20
40.697674
 30
0.0
 10
39.612121
 20
40.697674
 30
0.0
 10
39.539872
 20
40.697674
 30
0.0
 10
39.467626
 20
40.697674
 30
0.0
 10
39.395377
 20
40.697674
 30
0.0
 10
39.323131
 20
40.697674
 30
0.0
 10
39.250882
 20
40.697674
 30
0.0
 10
39.178636
 20
40.697674
 30
0.0
 10
39.106387
 20
40.697674
 30
0.0
 10
39.034141
 20
40.697674
 30
0.0
 10
38.961895
 20
40.697674
 30
0.0
 10
38.889646
 20
40.697674
 30
0.0
 10
38.817400
 20
40.697674
 30
0.0
 10
38.745151
 20
40.697674
 30
0.0
 10
38.672905
 20
40.697674
 30
0.0
 10
38.600656
 20
40.697674
 30
0.0
 10
38.528410
 20
40.697674
 30
0.0
 10
38.456161
 20
40.697674
 30
0.0
 10
38.383915
 20
40.697674
 30
0.0
 10
38.311666
 20
40.697674
 30
0.0
 10
38.239420
 20
40.697674
 30
0.0
 10
38.167171
 20
40.697674
 30
0.0
 10
38.094925
 20
40.697674
 30
0.0
 10
38.022676
 20
40.697674
 30
0.0
 10
37.950430
 20
40.697674
 30
0.0
 10
37.878181
 20
40.697674
 30
0.0
 10
37.805935
 20
40.697674
 30
0.0
 10
37.733686
 20
40.697674
 30
0.0
 10
37.661440
 20
40.697674
 30
0.0
 10
37.589191
 20
40.697674
 30
0.0
 10
37.516945
 20
40.697674
 30
0.0
 10
37.444696
 20
40.697674
 30
0.0
 10
37.372450
 20
40.697674
 30
0.0
 10
37.300201
 20
40.697674
 30
0.0
 10
37.227955
 20
40.697674
 30
0.0
 10
37.155706
 20
40.697674
 30
0.0
 10
37.083460
 20
40.697674
 30
0.0
 10
37.011212
 20
40.697674
 30
0.0
 10
36.938965
 20
40.697674
 30
0.0
 10
36.866717
 20
40.697674
 30
0.0
 10
36.794470
 20
40.697674
 30
0.0
 10
36.722222
 20
40.697674
 30
0.0
 10
36.649976
 20
40.697674
 30
0.0
 10
36.577729
 20
40.697674
 30
0.0
 10
36.505481
 20
40.697674
 30
0.0
 10
36.433235
 20
40.697674
 30
0.0
 10
36.360986
 20
40.697674
 30
0.0
 10
36.288740
 20
40.697674
 30
0.0
 10
36.216491
 20
40.697674
 30
0.0
 10
36.144245
 20
40.697674
 30
0.0
 10
36.071996
 20
40.697674
 30
0.0
 10
35.999750
 20
40.697674
 30
0.0
 10
35.927501
 20
40.697674
 30
0.0
 10
35.855255
 20
40.697674
 30
0.0
 10
35.783006
 20
40.697674
 30
0.0
 10
35.710760
 20
40.697674
 30
0.0
 10
35.638511
 20
40.697674
 30
0.0
 10
35.566265
 20
40.697674
 30
0.0
 10
35.494016
 20
40.697674
 30
0.0
 10
35.421770
 20
40.697674
 30
0.0
 10
35.349521
 20
40.697674
 30
0.0
 10
35.277275
 20
40.697674
 30
0.0
 10
35.205026
 20
40.697674
 30
0.0
 10
35.132780
 20
40.697674
 30
0.0
 10
35.060531
 20
40.697674
 30
0.0
 10
34.988285
 20
40.697674
 30
0.0
 10
34.916036
 20
40.697674
 30
0.0
 10
34.843790
 20
40.697674
 30
0.0
 10
34.771541
 20
40.697674
 30
0.0
 10
34.699295
 20
40.697674
 30
0.0
 10
34.627046
 20
40.697674
 30
0.0
 10
34.554800
 20
40.697674
 30
0.0
 10
34.482551
 20
40.697674
 30
0.0
 10
34.410305
 20
40.697674
 30
0.0
 10
34.338059
 20
40.697674
 30
0.0
 10
34.265810
 20
40.697674
 30
0.0
 10
34.193564
 20
40.697674
 30
0.0
 10
34.121315
 20
40.697674
 30
0.0
 10
34.049069
 20
40.697674
 30
0.0
 10
33.976820
 20
40.697674
 30
0.0
 10
33.904574
 20
40.697674
 30
0.0
 10
33.832325
 20
40.697674
 30
0.0
 10
33.760079
 20
40.697674
 30
0.0
 10
33.687830
 20
40.697674
 30
0.0
 10
33.615584
 20
40.697674
 30
0.0
 10
33.543335
 20
40.697674
 30
0.0
 10
33.471089
 20
40.697674
 30
0.0
 10
33.398840
 20
40.697674
 30
0.0
 10
33.326594
 20
40.697674
 30
0.0
 10
33.254345
 20
40.697674
 30
0.0
 10
33.182099
 20
40.697674
 30
0.0
 10
33.109851
 20
40.697674
 30
0.0
 10
33.037604
 20
40.697674
 30
0.0
 10
32.965356
 20
40.697674
 30
0.0
 10
32.893110
 20
40.697674
 30
0.0
 10
32.820861
 20
40.697674
 30
0.0
 10
32.748615
 20
40.697674
 30
0.0
 10
32.676366
 20
40.697674
 30
0.0
 10
32.604120
 20
40.697674
 30
0.0
 10
32.531871
 20
40.697674
 30
0.0
 10
32.459625
 20
40.697674
 30
0.0
 10
32.387376
 20
40.697674
 30
0.0
 10
32.315130
 20
40.697674
 30
0.0
 10
32.242881
 20
40.697674
 30
0.0
 10
32.170635
 20
40.697674
 30
0.0
 10
32.098386
 20
40.697674
 30
0.0
 10
32.026140
 20
40.697674
 30
0.0
 10
32.017758
 20
40.668150
 30
0.0
 10
32.009376
 20
40.638626
 30
0.0
 10
32.000994
 20
40.609102
 30
0.0
 10
31.992612
 20
40.579578
 30
0.0
 10
31.984230
 20
40.550054
 30
0.0
 10
31.975848
 20
40.520530
 30
0.0
 10
31.967466
 20
40.491006
 30
0.0
 10
31.959084
 20
40.461482
 30
0.0
 10
31.950702
 20
40.431958
 30
0.0
 10
31.942320
 20
40.402434
 30
0.0
 10
31.933938
 20
40.372910
 30
0.0
 10
31.925556
 20
40.343386
 30
0.0
 10
31.917174
 20
40.313862
 30
0.0
 10
31.908792
 20
40.284338
 30
0.0
 10
31.900410
 20
40.254814
 30
0.0
 10
31.892028
 20
40.225290
 30
0.0
 10
31.883646
 20
40.195766
 30
0.0
 10
31.875264
 20
40.166242
 30
0.0
 10
31.866882
 20
40.136718
 30
0.0
 10
31.858500
 20
40.107194
 30
0.0
 10
31.850118
 20
40.077670
 30
0.0
 10
31.841736
 20
40.048146
 30
0.0
 10
31.833354
 20
40.018623
 30
0.0
 10
31.824972
 20
39.989098
 30
0.0
 10
31.816590
 20
39.959575
 30
0.0
 10
31.808208
 20
39.930050
 30
0.0
 10
31.799826
 20
39.900527
 30
0.0
 10
31.791444
 20
39.871003
 30
0.0
 10
31.783062
 20
39.841479
 30
0.0
 10
31.774680
 20
39.811955
 30
0.0
 10
31.766298
 20
39.782431
 30
0.0
 10
31.757916
 20
39.752907
 30
0.0
 10
31.749534
 20
39.723383
 30
0.0
 10
31.741152
 20
39.693859
 30
0.0
 10
31.732770
 20
39.664335
 30
0.0
 10
31.724388
 20
39.634811
 30
0.0
 10
31.716006
 20
39.605287
 30
0.0
 10
31.707624
 20
39.575763
 30
0.0
 10
31.699242
 20
39.546239
 30
0.0
 10
31.690860
 20
39.516715
 30
0.0
 10
31.682478
 20
39.487191
 30
0.0
 10
31.674096
 20
39.457667
 30
0.0
 10
31.665714
 20
39.428143
 30
0.0
 10
31.657332
 20
39.398619
 30
0.0
 10
31.648950
 20
39.369095
 30
0.0
 10
31.640568
 20
39.339571
 30
0.0
 10
31.632186
 20
39.310047
 30
0.0
 10
31.623804
 20
39.280523
 30
0.0
 10
31.615422
 20
39.250999
 30
0.0
 10
31.607040
 20
39.221475
 30
0.0
 10
31.598658
 20
39.191951
 30
0.0
 10
31.590276
 20
39.162427
 30
0.0
 10
31.581894
 20
39.132903
 30
0.0
 10
31.573512
 20
39.103379
 30
0.0
 10
31.565130
 20
39.073855
 30
0.0
 10
31.556748
 20
39.044331
 30
0.0
 10
31.548366
 20
39.014807
 30
0.0
 10
31.539984
 20
38.985283
 30
0.0
 10
31.531602
 20
38.955759
 30
0.0
 10
31.523220
 20
38.926235
 30
0.0
 10
31.514838
 20
38.896711
 30
0.0
 10
31.506456
 20
38.867187
 30
0.0
 10
31.498074
 20
38.837663
 30
0.0
 10
31.489692
 20
38.808139
 30
0.0
 10
31.474988
 20
38.756270
 30
0.0
 10
31.458563
 20
38.698155
 30
0.0
 10
31.440416
 20
38.633890
 30
0.0
 10
31.420576
 20
38.563569
 30
0.0
 10
31.399098
 20
38.487290
 30
0.0
 10
31.375984
 20
38.405148
 30
0.0
 10
31.351262
 20
38.317237
 30
0.0
 10
31.324959
 20
38.223654
 30
0.0
 10
31.297103
 20
38.124494
 30
0.0
 10
31.267732
 20
38.019853
 30
0.0
 10
31.236869
 20
37.909826
 30
0.0
 10
31.204532
 20
37.794509
 30
0.0
 10
31.170755
 20
37.673997
 30
0.0
 10
31.135559
 20
37.548387
 30
0.0
 10
31.098975
 20
37.417773
 30
0.0
 10
31.061027
 20
37.282251
 30
0.0
 10
31.021742
 20
37.141916
 30
0.0
 10
30.981147
 20
36.996865
 30
0.0
 10
30.939271
 20
36.847193
 30
0.0
 10
30.896136
 20
36.692995
 30
0.0
 10
30.851774
 20
36.534367
 30
0.0
 10
30.806206
 20
36.371405
 30
0.0
 10
30.759462
 20
36.204203
 30
0.0
 10
30.711568
 20
36.032859
 30
0.0
 10
30.662552
 20
35.857466
 30
0.0
 10
30.612441
 20
35.678122
 30
0.0
 10
30.561257
 20
35.494921
 30
0.0
 10
30.509032
 20
35.307958
 30
0.0
 10
30.455790
 20
35.117330
 30
0.0
 10
30.401559
 20
34.923132
 30
0.0
 10
30.346364
 20
34.725460
 30
0.0
 10
30.290233
 20
34.524409
 30
0.0
 10
30.233193
 20
34.320074
 30
0.0
 10
30.175270
 20
34.112552
 30
0.0
 10
30.116489
 20
33.901938
 30
0.0
 10
30.056881
 20
33.688327
 30
0.0
 10
29.996468
 20
33.471815
 30
0.0
 10
29.935280
 20
33.252498
 30
0.0
 10
29.873340
 20
33.030471
 30
0.0
 10
29.810681
 20
32.805830
 30
0.0
 10
29.747322
 20
32.578670
 30
0.0
 10
29.683295
 20
32.349086
 30
0.0
 10
29.618626
 20
32.117175
 30
0.0
 10
29.553340
 20
31.883033
 30
0.0
 10
29.487466
 20
31.646753
 30
0.0
 10
29.421025
 20
31.408433
 30
0.0
 10
29.354051
 20
31.168167
 30
0.0
 10
29.286569
 20
30.926052
 30
0.0
 10
29.218602
 20
30.682182
 30
0.0
 10
29.150180
 20
30.436654
 30
0.0
 10
29.081326
 20
30.189562
 30
0.0
 10
29.012071
 20
29.941003
 30
0.0
 10
28.942441
 20
29.691073
 30
0.0
 10
28.872462
 20
29.439865
 30
0.0
 10
28.802157
 20
29.187477
 30
0.0
 10
28.731559
 20
28.934004
 30
0.0
 10
28.660691
 20
28.679541
 30
0.0
 10
28.589579
 20
28.424184
 30
0.0
 10
28.518253
 20
28.168028
 30
0.0
 10
28.446735
 20
27.911170
 30
0.0
 10
28.375056
 20
27.653704
 30
0.0
 10
28.303242
 20
27.395726
 30
0.0
 10
28.231318
 20
27.137331
 30
0.0
 10
28.159310
 20
26.878617
 30
0.0
 10
28.087354
 20
26.620669
 30
0.0
 10
28.015582
 20
26.364563
 30
0.0
 10
27.944019
 20
26.110376
 30
0.0
 10
27.872690
 20
25.858185
 30
0.0
 10
27.801622
 20
25.608067
 30
0.0
 10
27.730839
 20
25.360099
 30
0.0
 10
27.660367
 20
25.114357
 30
0.0
 10
27.590232
 20
24.870918
 30
0.0
 10
27.520458
 20
24.629859
 30
0.0
 10
27.451072
 20
24.391257
 30
0.0
 10
27.382098
 20
24.155189
 30
0.0
 10
27.313563
 20
23.921732
 30
0.0
 10
27.245491
 20
23.690962
 30
0.0
 10
27.177908
 20
23.462957
 30
0.0
 10
27.110839
 20
23.237792
 30
0.0
 10
27.044310
 20
23.015546
 30
0.0
 10
26.978347
 20
22.796295
 30
0.0
 10
26.912974
 20
22.580116
 30
0.0
 10
26.848217
 20
22.367085
 30
0.0
 10
26.784102
 20
22.157279
 30
0.0
 10
26.720654
 20
21.950776
 30
0.0
 10
26.657899
 20
21.747652
 30
0.0
 10
26.595861
 20
21.547984
 30
0.0
 10
26.534567
 20
21.351849
 30
0.0
 10
26.474041
 20
21.159323
 30
0.0
 10
26.414310
 20
20.970484
 30
0.0
 10
26.355398
 20
20.785409
 30
0.0
 10
26.297331
 20
20.604173
 30
0.0
 10
26.240135
 20
20.426855
 30
0.0
 10
26.183835
 20
20.253531
 30
0.0
 10
26.128456
 20
20.084277
 30
0.0
 10
26.074024
 20
19.919172
 30
0.0
 10
26.020564
 20
19.758290
 30
0.0
 10
25.968102
 20
19.601710
 30
0.0
 10
25.916663
 20
19.449508
 30
0.0
 10
25.866272
 20
19.301761
 30
0.0
 10
25.816956
 20
19.158546
 30
0.0
 10
25.768739
 20
19.019940
 30
0.0
 10
25.721646
 20
18.886020
 30
0.0
 10
25.675704
 20
18.756861
 30
0.0
 10
25.630938
 20
18.632542
 30
0.0
 10
25.587373
 20
18.513139
 30
0.0
 10
25.545034
 20
18.398729
 30
0.0
 10
25.503948
 20
18.289389
 30
0.0
 10
25.464139
 20
18.185196
 30
0.0
 10
25.425632
 20
18.086226
 30
0.0
 10
25.388455
 20
17.992556
 30
0.0
 10
25.352630
 20
17.904264
 30
0.0
 10
25.318185
 20
17.821425
 30
0.0
 10
25.285145
 20
17.744118
 30
0.0
 10
25.253535
 20
17.672418
 30
0.0
 10
25.223380
 20
17.606403
 30
0.0
 10
25.194706
 20
17.546149
 30
0.0
 10
25.167539
 20
17.491734
 30
0.0
 10
25.141905
 20
17.443234
 30
0.0
 10
25.117826
 20
17.400726
 30
0.0
 10
25.095330
 20
17.364286
 30
0.0
 10
25.074443
 20
17.333993
 30
0.0
 10
25.055190
 20
17.309922
 30
0.0
 10
25.037593
 20
17.292151
 30
0.0
 10
25.021681
 20
17.280754
 30
0.0
 10
25.007480
 20
17.275813
 30
0.0
 10
24.995014
 20
17.277393
 30
0.0
 10
24.984310
 20
17.285589
 30
0.0
 10
24.973396
 20
17.300849
 30
0.0
 10
24.960304
 20
17.323517
 30
0.0
 10
24.945067
 20
17.353496
 30
0.0
 10
24.927716
 20
17.390693
 30
0.0
 10
24.908279
 20
17.435011
 30
0.0
 10
24.886788
 20
17.486354
 30
0.0
 10
24.863273
 20
17.544628
 30
0.0
 10
24.837766
 20
17.609737
 30
0.0
 10
24.810297
 20
17.681584
 30
0.0
 10
24.780896
 20
17.760075
 30
0.0
 10
24.749593
 20
17.845115
 30
0.0
 10
24.716420
 20
17.936606
 30
0.0
 10
24.681406
 20
18.034454
 30
0.0
 10
24.644583
 20
18.138564
 30
0.0
 10
24.605981
 20
18.248839
 30
0.0
 10
24.571249
 20
18.365188
 30
0.0
 10
24.529180
 20
18.487507
 30
0.0
 10
24.485423
 20
18.615706
 30
0.0
 10
24.440010
 20
18.749688
 30
0.0
 10
24.392970
 20
18.889358
 30
0.0
 10
24.344334
 20
19.034621
 30
0.0
 10
24.294133
 20
19.185380
 30
0.0
 10
24.242397
 20
19.341540
 30
0.0
 10
24.189156
 20
19.503006
 30
0.0
 10
24.134442
 20
19.669681
 30
0.0
 10
24.078286
 20
19.841471
 30
0.0
 10
24.020716
 20
20.018280
 30
0.0
 10
23.961764
 20
20.200013
 30
0.0
 10
23.901461
 20
20.386573
 30
0.0
 10
23.839837
 20
20.577865
 30
0.0
 10
23.776923
 20
20.773794
 30
0.0
 10
23.712748
 20
20.974264
 30
0.0
 10
23.647344
 20
21.179180
 30
0.0
 10
23.580742
 20
21.388445
 30
0.0
 10
23.512971
 20
21.601965
 30
0.0
 10
23.444063
 20
21.819644
 30
0.0
 10
23.374048
 20
22.041385
 30
0.0
 10
23.302956
 20
22.267095
 30
0.0
 10
23.230817
 20
22.496676
 30
0.0
 10
23.157664
 20
22.730034
 30
0.0
 10
23.083526
 20
22.967074
 30
0.0
 10
23.008433
 20
23.207698
 30
0.0
 10
22.932416
 20
23.451812
 30
0.0
 10
22.855506
 20
23.699321
 30
0.0
 10
22.777733
 20
23.950128
 30
0.0
 10
22.699128
 20
24.204139
 30
0.0
 10
22.619722
 20
24.461256
 30
0.0
 10
22.539544
 20
24.721387
 30
0.0
 10
22.458626
 20
24.984433
 30
0.0
 10
22.376997
 20
25.250300
 30
0.0
 10
22.294689
 20
25.518893
 30
0.0
 10
22.211733
 20
25.790115
 30
0.0
 10
22.128158
 20
26.063872
 30
0.0
 10
22.043995
 20
26.340067
 30
0.0
 10
21.959275
 20
26.618605
 30
0.0
 10
21.874028
 20
26.899391
 30
0.0
 10
21.788285
 20
27.182328
 30
0.0
 10
21.702076
 20
27.467322
 30
0.0
 10
21.615432
 20
27.754277
 30
0.0
 10
21.528384
 20
28.043096
 30
0.0
 10
21.440961
 20
28.333686
 30
0.0
 10
21.353195
 20
28.625950
 30
0.0
 10
21.265117
 20
28.919792
 30
0.0
 10
21.176755
 20
29.215117
 30
0.0
 10
21.123124
 20
29.394532
 30
0.0
 10
21.069492
 20
29.573947
 30
0.0
 10
21.015860
 20
29.753362
 30
0.0
 10
20.962229
 20
29.932777
 30
0.0
 10
20.908597
 20
30.112192
 30
0.0
 10
20.854966
 20
30.291607
 30
0.0
 10
20.801334
 20
30.471022
 30
0.0
 10
20.747702
 20
30.650437
 30
0.0
 10
20.694071
 20
30.829851
 30
0.0
 10
20.640439
 20
31.009266
 30
0.0
 10
20.586808
 20
31.188681
 30
0.0
 10
20.533176
 20
31.368096
 30
0.0
 10
20.479544
 20
31.547511
 30
0.0
 10
20.425913
 20
31.726926
 30
0.0
 10
20.372281
 20
31.906341
 30
0.0
 10
20.318650
 20
32.085756
 30
0.0
 10
20.265018
 20
32.265171
 30
0.0
 10
20.211386
 20
32.444586
 30
0.0
 10
20.157755
 20
32.624001
 30
0.0
 10
20.104123
 20
32.803416
 30
0.0
 10
20.050492
 20
32.982831
 30
0.0
 10
19.996860
 20
33.162246
 30
0.0
 10
19.943229
 20
33.341661
 30
0.0
 10
19.889597
 20
33.521076
 30
0.0
 10
19.835965
 20
33.700491
 30
0.0
 10
19.782334
 20
33.879906
 30
0.0
 10
19.728702
 20
34.059321
 30
0.0
 10
19.675071
 20
34.238736
 30
0.0
 10
19.621439
 20
34.418151
 30
0.0
 10
19.567807
 20
34.597566
 30
0.0
 10
19.514176
 20
34.776981
 30
0.0
 10
19.460544
 20
34.956396
 30
0.0
 10
19.406913
 20
35.135811
 30
0.0
 10
19.353281
 20
35.315226
 30
0.0
 10
19.299649
 20
35.494641
 30
0.0
 10
19.246018
 20
35.674056
 30
0.0
 10
19.192386
 20
35.853470
 30
0.0
 10
19.138755
 20
36.032886
 30
0.0
 10
19.085123
 20
36.212301
 30
0.0
 10
19.031491
 20
36.391715
 30
0.0
 10
18.977860
 20
36.571131
 30
0.0
 10
18.924228
 20
36.750545
 30
0.0
 10
18.870597
 20
36.929960
 30
0.0
 10
18.816965
 20
37.109375
 30
0.0
 10
18.763333
 20
37.288790
 30
0.0
 10
18.709702
 20
37.468205
 30
0.0
 10
18.656070
 20
37.647620
 30
0.0
 10
18.602438
 20
37.827035
 30
0.0
 10
18.548807
 20
38.006450
 30
0.0
 10
18.495175
 20
38.185865
 30
0.0
 10
18.441544
 20
38.365280
 30
0.0
 10
18.387912
 20
38.544695
 30
0.0
 10
18.334280
 20
38.724110
 30
0.0
 10
18.280649
 20
38.903525
 30
0.0
 10
18.227017
 20
39.082940
 30
0.0
 10
18.173386
 20
39.262355
 30
0.0
 10
18.119754
 20
39.441770
 30
0.0
 10
18.066123
 20
39.621185
 30
0.0
 10
18.012491
 20
39.800600
 30
0.0
 10
17.958859
 20
39.980015
 30
0.0
 10
17.905228
 20
40.159430
 30
0.0
 10
17.851596
 20
40.338845
 30
0.0
 10
17.797965
 20
40.518260
 30
0.0
 10
17.744333
 20
40.697675
 30
0.0
 10
17.673838
 20
40.697675
 30
0.0
 10
17.603342
 20
40.697675
 30
0.0
 10
17.532847
 20
40.697675
 30
0.0
 10
17.462352
 20
40.697675
 30
0.0
 10
17.391856
 20
40.697675
 30
0.0
 10
17.321361
 20
40.697675
 30
0.0
 10
17.250866
 20
40.697675
 30
0.0
 10
17.180370
 20
40.697675
 30
0.0
 10
17.109875
 20
40.697675
 30
0.0
 10
17.039380
 20
40.697675
 30
0.0
 10
16.968884
 20
40.697675
 30
0.0
 10
16.898389
 20
40.697675
 30
0.0
 10
16.827894
 20
40.697675
 30
0.0
 10
16.757398
 20
40.697675
 30
0.0
 10
16.686903
 20
40.697675
 30
0.0
 10
16.616408
 20
40.697675
 30
0.0
 10
16.545912
 20
40.697675
 30
0.0
 10
16.475417
 20
40.697675
 30
0.0
 10
16.404922
 20
40.697675
 30
0.0
 10
16.334426
 20
40.697675
 30
0.0
 10
16.263931
 20
40.697675
 30
0.0
 10
16.193436
 20
40.697675
 30
0.0
 10
16.122940
 20
40.697675
 30
0.0
 10
16.052445
 20
40.697675
 30
0.0
 10
15.981950
 20
40.697675
 30
0.0
 10
15.911454
 20
40.697675
 30
0.0
 10
15.840959
 20
40.697675
 30
0.0
 10
15.770464
 20
40.697675
 30
0.0
 10
15.699968
 20
40.697675
 30
0.0
 10
15.629473
 20
40.697675
 30
0.0
 10
15.558978
 20
40.697675
 30
0.0
 10
15.488482
 20
40.697675
 30
0.0
 10
15.417987
 20
40.697675
 30
0.0
 10
15.347492
 20
40.697675
 30
0.0
 10
15.276997
 20
40.697675
 30
0.0
 10
15.206501
 20
40.697675
 30
0.0
 10
15.136006
 20
40.697675
 30
0.0
 10
15.065510
 20
40.697675
 30
0.0
 10
14.995015
 20
40.697675
 30
0.0
 10
14.924520
 20
40.697675
 30
0.0
 10
14.854024
 20
40.697675
 30
0.0
 10
14.783529
 20
40.697675
 30
0.0
 10
14.713034
 20
40.697675
 30
0.0
 10
14.642538
 20
40.697675
 30
0.0
 10
14.572043
 20
40.697675
 30
0.0
 10
14.501548
 20
40.697675
 30
0.0
 10
14.431052
 20
40.697675
 30
0.0
 10
14.360557
 20
40.697675
 30
0.0
 10
14.290062
 20
40.697675
 30
0.0
 10
14.219567
 20
40.697675
 30
0.0
 10
14.149071
 20
40.697675
 30
0.0
 10
14.078576
 20
40.697675
 30
0.0
 10
14.008081
 20
40.697675
 30
0.0
 10
13.937585
 20
40.697675
 30
0.0
 10
13.867090
 20
40.697675
 30
0.0
 10
13.796594
 20
40.697675
 30
0.0
 10
13.726099
 20
40.697675
 30
0.0
 10
13.655604
 20
40.697675
 30
0.0
 10
13.585108
 20
40.697675
 30
0.0
 10
13.514613
 20
40.697675
 30
0.0
 10
13.444118
 20
40.697675
 30
0.0
 10
13.373622
 20
40.697675
 30
0.0
 10
13.303127
 20
40.697675
 30
0.0
 10
13.232632
 20
40.697675
 30
0.0
 10
13.162136
 20
40.697675
 30
0.0
 10
13.091641
 20
40.697675
 30
0.0
 10
13.021146
 20
40.697675
 30
0.0
 10
12.950651
 20
40.697675
 30
0.0
 10
12.880155
 20
40.697675
 30
0.0
 10
12.809660
 20
40.697675
 30
0.0
 10
12.739165
 20
40.697675
 30
0.0
 10
12.668669
 20
40.697675
 30
0.0
 10
12.598174
 20
40.697675
 30
0.0
 10
12.527678
 20
40.697675
 30
0.0
 10
12.457183
 20
40.697675
 30
0.0
 10
12.386688
 20
40.697675
 30
0.0
 10
12.316192
 20
40.697675
 30
0.0
 10
12.245697
 20
40.697675
 30
0.0
 10
12.175202
 20
40.697675
 30
0.0
 10
12.104706
 20
40.697675
 30
0.0
 10
12.034211
 20
40.697675
 30
0.0
 10
11.963716
 20
40.697675
 30
0.0
 10
11.893220
 20
40.697675
 30
0.0
 10
11.822725
 20
40.697675
 30
0.0
 10
11.752230
 20
40.697675
 30
0.0
 10
11.681735
 20
40.697675
 30
0.0
 10
11.611239
 20
40.697675
 30
0.0
 10
11.540744
 20
40.697675
 30
0.0
 10
11.470249
 20
40.697675
 30
0.0
 10
11.399753
 20
40.697675
 30
0.0
 10
11.329258
 20
40.697675
 30
0.0
 10
11.258763
 20
40.697675
 30
0.0
 10
11.188267
 20
40.697675
 30
0.0
 10
11.117772
 20
40.697675
 30
0.0
 10
11.047276
 20
40.697675
 30
0.0
 10
10.976781
 20
40.697675
 30
0.0
 10
10.906286
 20
40.697675
 30
0.0
 10
10.835790
 20
40.697675
 30
0.0
 10
10.765295
 20
40.697675
 30
0.0
 10
10.694800
 20
40.697675
 30
0.0
 10
10.624304
 20
40.697675
 30
0.0
 10
10.553809
 20
40.697675
 30
0.0
 10
10.483314
 20
40.697675
 30
0.0
 10
10.412819
 20
40.697675
 30
0.0
 10
10.342323
 20
40.697675
 30
0.0
 10
10.271828
 20
40.697675
 30
0.0
 10
10.201333
 20
40.697675
 30
0.0
 10
10.130837
 20
40.697675
 30
0.0
 10
10.060342
 20
40.697675
 30
0.0
 10
9.989847
 20
40.697675
 30
0.0
 10
9.919351
 20
40.697675
 30
0.0
 10
9.848856
 20
40.697675
 30
0.0
 10
9.778360
 20
40.697675
 30
0.0
 10
9.707865
 20
40.697675
 30
0.0
 10
9.637370
 20
40.697675
 30
0.0
 10
9.566874
 20
40.697675
 30
0.0
 10
9.496379
 20
40.697675
 30
0.0
 10
9.425884
 20
40.697675
 30
0.0
 10
9.355388
 20
40.697675
 30
0.0
 10
9.284893
 20
40.697675
 30
0.0
 10
9.214398
 20
40.697675
 30
0.0
 10
9.143903
 20
40.697675
 30
0.0
 10
9.073407
 20
40.697675
 30
0.0
 10
9.002912
 20
40.697675
 30
0.0
 10
8.932417
 20
40.697675
 30
0.0
 10
8.861921
 20
40.697675
 30
0.0
 10
8.791426
 20
40.697675
 30
0.0
 10
8.720931
 20
40.697675
 30
0.0
 10
8.720931
 20
40.447856
 30
0.0
 10
8.720931
 20
40.198038
 30
0.0
 10
8.720931
 20
39.948220
 30
0.0
 10
8.720931
 20
39.698401
 30
0.0
 10
8.720931
 20
39.448583
 30
0.0
 10
8.720931
 20
39.198765
 30
0.0
 10
8.720931
 20
38.948946
 30
0.0
 10
8.720931
 20
38.699128
 30
0.0
 10
8.720931
 20
38.449310
 30
0.0
 10
8.720931
 20
38.199492
 30
0.0
 10
8.720931
 20
37.949673
 30
0.0
 10
8.720931
 20
37.699855
 30
0.0
 10
8.720931
 20
37.450037
 30
0.0
 10
8.720931
 20
37.200218
 30
0.0
 10
8.720931
 20
36.950400
 30
0.0
 10
8.720931
 20
36.700582
 30
0.0
 10
8.720931
 20
36.450763
 30
0.0
 10
8.720931
 20
36.200945
 30
0.0
 10
8.720931
 20
35.951127
 30
0.0
 10
8.720931
 20
35.701308
 30
0.0
 10
8.720931
 20
35.451490
 30
0.0
 10
8.720931
 20
35.201672
 30
0.0
 10
8.720931
 20
34.951853
 30
0.0
 10
8.720931
 20
34.702035
 30
0.0
 10
8.720931
 20
34.452217
 30
0.0
 10
8.720931
 20
34.202399
 30
0.0
 10
8.720931
 20
33.952580
 30
0.0
 10
8.720931
 20
33.702762
 30
0.0
 10
8.720931
 20
33.452944
 30
0.0
 10
8.720931
 20
33.203125
 30
0.0
 10
8.720931
 20
32.953307
 30
0.0
 10
8.720931
 20
32.703489
 30
0.0
 10
8.720931
 20
32.453670
 30
0.0
 10
8.720931
 20
32.203852
 30
0.0
 10
8.720931
 20
31.954034
 30
0.0
 10
8.720931
 20
31.704216
 30
0.0
 10
8.720931
 20
31.454397
 30
0.0
 10
8.720931
 20
31.204579
 30
0.0
 10
8.720931
 20
30.954761
 30
0.0
 10
8.720931
 20
30.704942
 30
0.0
 10
8.720931
 20
30.455124
 30
0.0
 10
8.720931
 20
30.205306
 30
0.0
 10
8.720931
 20
29.955487
 30
0.0
 10
8.720931
 20
29.705669
 30
0.0
 10
8.720931
 20
29.455851
 30
0.0
 10
8.720931
 20
29.206032
 30
0.0
 10
8.720931
 20
28.956214
 30
0.0
 10
8.720931
 20
28.706396
 30
0.0
 10
8.720931
 20
28.456578
 30
0.0
 10
8.720931
 20
28.206759
 30
0.0
 10
8.720931
 20
27.956941
 30
0.0
 10
8.720931
 20
27.707123
 30
0.0
 10
8.720931
 20
27.457304
 30
0.0
 10
8.720931
 20
27.207486
 30
0.0
 10
8.720931
 20
26.957668
 30
0.0
 10
8.720931
 20
26.707849
 30
0.0
 10
8.720931
 20
26.458031
 30
0.0
 10
8.720931
 20
26.208213
 30
0.0
 10
8.720931
 20
25.958394
 30
0.0
 10
8.720931
 20
25.708576
 30
0.0
 10
8.720931
 20
25.458758
 30
0.0
 10
8.720931
 20
25.208940
 30
0.0
 10
8.720931
 20
24.959121
 30
0.0
 10
8.720931
 20
24.709303
 30
0.0
 10
8.720931
 20
24.459485
 30
0.0
 10
8.720931
 20
24.209666
 30
0.0
 10
8.720931
 20
23.959848
 30
0.0
 10
8.720931
 20
23.710030
 30
0.0
 10
8.720931
 20
23.460211
 30
0.0
 10
8.720931
 20
23.210393
 30
0.0
 10
8.720931
 20
22.960575
 30
0.0
 10
8.720931
 20
22.710756
 30
0.0
 10
8.720931
 20
22.460938
 30
0.0
 10
8.720931
 20
22.211120
 30
0.0
 10
8.720931
 20
21.961301
 30
0.0
 10
8.720931
 20
21.711483
 30
0.0
 10
8.720931
 20
21.461665
 30
0.0
 10
8.720931
 20
21.211846
 30
0.0
 10
8.720931
 20
20.962028
 30
0.0
 10
8.720931
 20
20.712210
 30
0.0
 10
8.720931
 20
20.462392
 30
0.0
 10
8.720931
 20
20.212573
 30
0.0
 10
8.720931
 20
19.962755
 30
0.0
 10
8.720931
 20
19.712937
 30
0.0
 10
8.720931
 20
19.463118
 30
0.0
 10
8.720931
 20
19.213300
 30
0.0
 10
8.720931
 20
18.963482
 30
0.0
 10
8.720931
 20
18.713663
 30
0.0
 10
8.720931
 20
18.463845
 30
0.0
 10
8.720931
 20
18.214027
 30
0.0
 10
8.720931
 20
17.964208
 30
0.0
 10
8.720931
 20
17.714390
 30
0.0
 10
8.720931
 20
17.464572
 30
0.0
 10
8.720931
 20
17.214753
 30
0.0
 10
8.720931
 20
16.964935
 30
0.0
 10
8.720931
 20
16.715117
 30
0.0
 10
8.720931
 20
16.465299
 30
0.0
 10
8.720931
 20
16.215481
 30
0.0
 10
8.720931
 20
15.965662
 30
0.0
 10
8.720931
 20
15.715844
 30
0.0
 10
8.720931
 20
15.466026
 30
0.0
 10
8.720931
 20
15.216207
 30
0.0
 10
8.720931
 20
14.966389
 30
0.0
 10
8.720931
 20
14.716571
 30
0.0
 10
8.720931
 20
14.466752
 30
0.0
 10
8.720931
 20
14.216934
 30
0.0
 10
8.720931
 20
13.967116
 30
0.0
 10
8.720931
 20
13.717297
 30
0.0
 10
8.720931
 20
13.467479
 30
0.0
 10
8.720931
 20
13.217661
 30
0.0
 10
8.720931
 20
12.967842
 30
0.0
 10
8.720931
 20
12.718024
 30
0.0
 10
8.720931
 20
12.468206
 30
0.0
 10
8.720931
 20
12.218387
 30
0.0
 10
8.720931
 20
11.968569
 30
0.0
 10
8.720931
 20
11.718751
 30
0.0
 10
8.720931
 20
11.468933
 30
0.0
 10
8.720931
 20
11.219114
 30
0.0
 10
8.720931
 20
10.969296
 30
0.0
 10
8.720931
 20
10.719478
 30
0.0
 10
8.720931
 20
10.469659
 30
0.0
 10
8.720931
 20
10.219841
 30
0.0
 10
8.720931
 20
9.970023
 30
0.0
 10
8.720931
 20
9.720204
 30
0.0
 10
8.720931
 20
9.470386
 30
0.0
 10
8.720931
 20
9.220568
 30
0.0
 10
8.720931
 20
8.970749
 30
0.0
 10
8.720931
 20
8.720931
 30
0.0
 10
8.766352
 20
8.720931
 30
0.0
 10
8.811774
 20
8.720931
 30
0.0
 10
8.857195
 20
8.720931
 30
0.0
 10
8.902617
 20
8.720931
 30
0.0
 10
8.948038
 20
8.720931
 30
0.0
 10
8.993460
 20
8.720931
 30
0.0
 10
9.038881
 20
8.720931
 30
0.0
 10
9.084303
 20
8.720931
 30
0.0
 10
9.129724
 20
8.720931
 30
0.0
 10
9.175146
 20
8.720931
 30
0.0
 10
9.220567
 20
8.720931
 30
0.0
 10
9.265989
 20
8.720931
 30
0.0
 10
9.311410
 20
8.720931
 30
0.0
 10
9.356832
 20
8.720931
 30
0.0
 10
9.402253
 20
8.720931
 30
0.0
 10
9.447675
 20
8.720931
 30
0.0
 10
9.493096
 20
8.720931
 30
0.0
 10
9.538518
 20
8.720931
 30
0.0
 10
9.583939
 20
8.720931
 30
0.0
 10
9.629361
 20
8.720931
 30
0.0
 10
9.674782
 20
8.720931
 30
0.0
 10
9.720204
 20
8.720931
 30
0.0
 10
9.765625
 20
8.720931
 30
0.0
 10
9.811047
 20
8.720931
 30
0.0
 10
9.856468
 20
8.720931
 30
0.0
 10
9.901890
 20
8.720931
 30
0.0
 10
9.947311
 20
8.720931
 30
0.0
 10
9.992733
 20
8.720931
 30
0.0
 10
10.038155
 20
8.720931
 30
0.0
 10
10.083576
 20
8.720931
 30
0.0
 10
10.128998
 20
8.720931
 30
0.0
 10
10.174419
 20
8.720931
 30
0.0
 10
10.219840
 20
8.720931
 30
0.0
 10
10.265262
 20
8.720931
 30
0.0
 10
10.310684
 20
8.720931
 30
0.0
 10
10.356105
 20
8.720931
 30
0.0
 10
10.401527
 20
8.720931
 30
0.0
 10
10.446948
 20
8.720931
 30
0.0
 10
10.492370
 20
8.720931
 30
0.0
 10
10.537791
 20
8.720931
 30
0.0
 10
10.583213
 20
8.720931
 30
0.0
 10
10.628634
 20
8.720931
 30
0.0
 10
10.674056
 20
8.720931
 30
0.0
 10
10.719477
 20
8.720931
 30
0.0
 10
10.764899
 20
8.720931
 30
0.0
 10
10.810320
 20
8.720931
 30
0.0
 10
10.855742
 20
8.720931
 30
0.0
 10
10.901163
 20
8.720931
 30
0.0
 10
10.946585
 20
8.720931
 30
0.0
 10
10.992006
 20
8.720931
 30
0.0
 10
11.037428
 20
8.720931
 30
0.0
 10
11.082849
 20
8.720931
 30
0.0
 10
11.128271
 20
8.720931
 30
0.0
 10
11.173692
 20
8.720931
 30
0.0
 10
11.219114
 20
8.720931
 30
0.0
 10
11.264535
 20
8.720931
 30
0.0
 10
11.309957
 20
8.720931
 30
0.0
 10
11.355378
 20
8.720931
 30
0.0
 10
11.400800
 20
8.720931
 30
0.0
 10
11.446222
 20
8.720931
 30
0.0
 10
11.491643
 20
8.720931
 30
0.0
 10
11.537064
 20
8.720931
 30
0.0
 10
11.582486
 20
8.720931
 30
0.0
 10
11.627907
 20
8.720931
 30
0.0
 10
11.673329
 20
8.720931
 30
0.0
 10
11.718751
 20
8.720931
 30
0.0
 10
11.764172
 20
8.720931
 30
0.0
 10
11.809593
 20
8.720931
 30
0.0
 10
11.855015
 20
8.720931
 30
0.0
 10
11.900437
 20
8.720931
 30
0.0
 10
11.945858
 20
8.720931
 30
0.0
 10
11.991280
 20
8.720931
 30
0.0
 10
12.036701
 20
8.720931
 30
0.0
 10
12.082123
 20
8.720931
 30
0.0
 10
12.127544
 20
8.720931
 30
0.0
 10
12.172966
 20
8.720931
 30
0.0
 10
12.218387
 20
8.720931
 30
0.0
 10
12.263809
 20
8.720931
 30
0.0
 10
12.309230
 20
8.720931
 30
0.0
 10
12.354652
 20
8.720931
 30
0.0
 10
12.400073
 20
8.720931
 30
0.0
 10
12.445495
 20
8.720931
 30
0.0
 10
12.490916
 20
8.720931
 30
0.0
 10
12.536338
 20
8.720931
 30
0.0
 10
12.581759
 20
8.720931
 30
0.0
 10
12.627181
 20
8.720931
 30
0.0
 10
12.672602
 20
8.720931
 30
0.0
 10
12.718024
 20
8.720931
 30
0.0
 10
12.763445
 20
8.720931
 30
0.0
 10
12.808867
 20
8.720931
 30
0.0
 10
12.854288
 20
8.720931
 30
0.0
 10
12.899710
 20
8.720931
 30
0.0
 10
12.945131
 20
8.720931
 30
0.0
 10
12.990553
 20
8.720931
 30
0.0
 10
13.035974
 20
8.720931
 30
0.0
 10
13.081396
 20
8.720931
 30
0.0
 10
13.126817
 20
8.720931
 30
0.0
 10
13.172239
 20
8.720931
 30
0.0
 10
13.217660
 20
8.720931
 30
0.0
 10
13.263082
 20
8.720931
 30
0.0
 10
13.308503
 20
8.720931
 30
0.0
 10
13.353925
 20
8.720931
 30
0.0
 10
13.399346
 20
8.720931
 30
0.0
 10
13.444768
 20
8.720931
 30
0.0
 10
13.490189
 20
8.720931
 30
0.0
 10
13.535611
 20
8.720931
 30
0.0
 10
13.581032
 20
8.720931
 30
0.0
 10
13.626454
 20
8.720931
 30
0.0
 10
13.671875
 20
8.720931
 30
0.0
 10
13.717297
 20
8.720931
 30
0.0
 10
13.762719
 20
8.720931
 30
0.0
 10
13.808140
 20
8.720931
 30
0.0
 10
13.853562
 20
8.720931
 30
0.0
 10
13.898983
 20
8.720931
 30
0.0
 10
13.944404
 20
8.720931
 30
0.0
 10
13.989826
 20
8.720931
 30
0.0
 10
14.035248
 20
8.720931
 30
0.0
 10
14.080669
 20
8.720931
 30
0.0
 10
14.126091
 20
8.720931
 30
0.0
 10
14.171512
 20
8.720931
 30
0.0
 10
14.216933
 20
8.720931
 30
0.0
 10
14.262355
 20
8.720931
 30
0.0
 10
14.307777
 20
8.720931
 30
0.0
 10
14.353198
 20
8.720931
 30
0.0
 10
14.398620
 20
8.720931
 30
0.0
 10
14.444041
 20
8.720931
 30
0.0
 10
14.489463
 20
8.720931
 30
0.0
 10
14.534884
 20
8.720931
 30
0.0
 10
14.535590
 20
8.895804
 30
0.0
 10
14.536295
 20
9.070677
 30
0.0
 10
14.537001
 20
9.245549
 30
0.0
 10
14.537706
 20
9.420422
 30
0.0
 10
14.538412
 20
9.595295
 30
0.0
 10
14.539117
 20
9.770168
 30
0.0
 10
14.539823
 20
9.945041
 30
0.0
 10
14.540529
 20
10.119914
 30
0.0
 10
14.541234
 20
10.294787
 30
0.0
 10
14.541940
 20
10.469659
 30
0.0
 10
14.542645
 20
10.644532
 30
0.0
 10
14.543351
 20
10.819405
 30
0.0
 10
14.544056
 20
10.994278
 30
0.0
 10
14.544762
 20
11.169150
 30
0.0
 10
14.545467
 20
11.344023
 30
0.0
 10
14.546173
 20
11.518896
 30
0.0
 10
14.546879
 20
11.693769
 30
0.0
 10
14.547584
 20
11.868642
 30
0.0
 10
14.548290
 20
12.043515
 30
0.0
 10
14.548995
 20
12.218387
 30
0.0
 10
14.549701
 20
12.393260
 30
0.0
 10
14.550406
 20
12.568133
 30
0.0
 10
14.551112
 20
12.743006
 30
0.0
 10
14.551817
 20
12.917879
 30
0.0
 10
14.552523
 20
13.092751
 30
0.0
 10
14.553229
 20
13.267624
 30
0.0
 10
14.553934
 20
13.442497
 30
0.0
 10
14.554640
 20
13.617370
 30
0.0
 10
14.555345
 20
13.792243
 30
0.0
 10
14.556051
 20
13.967116
 30
0.0
 10
14.556756
 20
14.141988
 30
0.0
 10
14.557462
 20
14.316861
 30
0.0
 10
14.558167
 20
14.491734
 30
0.0
 10
14.558873
 20
14.666607
 30
0.0
 10
14.559579
 20
14.841480
 30
0.0
 10
14.560284
 20
15.016352
 30
0.0
 10
14.560990
 20
15.191225
 30
0.0
 10
14.561695
 20
15.366098
 30
0.0
 10
14.562401
 20
15.540971
 30
0.0
 10
14.563106
 20
15.715844
 30
0.0
 10
14.563812
 20
15.890717
 30
0.0
 10
14.564517
 20
16.065589
 30
0.0
 10
14.565223
 20
16.240462
 30
0.0
 10
14.565929
 20
16.415335
 30
0.0
 10
14.566634
 20
16.590208
 30
0.0
 10
14.567340
 20
16.765081
 30
0.0
 10
14.568045
 20
16.939953
 30
0.0
 10
14.568751
 20
17.114826
 30
0.0
 10
14.569456
 20
17.289699
 30
0.0
 10
14.570162
 20
17.464572
 30
0.0
 10
14.570867
 20
17.639445
 30
0.0
 10
14.571573
 20
17.814318
 30
0.0
 10
14.572279
 20
17.989190
 30
0.0
 10
14.572984
 20
18.164063
 30
0.0
 10
14.573690
 20
18.338936
 30
0.0
 10
14.574395
 20
18.513809
 30
0.0
 10
14.575101
 20
18.688682
 30
0.0
 10
14.575806
 20
18.863554
 30
0.0
 10
14.576512
 20
19.038427
 30
0.0
 10
14.577217
 20
19.213300
 30
0.0
 10
14.577923
 20
19.388173
 30
0.0
 10
14.578629
 20
19.563046
 30
0.0
 10
14.579334
 20
19.737919
 30
0.0
 10
14.580784
 20
19.912791
 30
0.0
  0
ENDSEC
  0
SECTION
  2
OBJECTS
  0
DICTIONARY
  5
C
330
0
100
AcDbDictionary
  3
ACAD_GROUP
350
D
  3
ACAD_MLINESTYLE
350
17
  0
DICTIONARY
  5
D
330
C
100
AcDbDictionary
  0
DICTIONARY
  5
1A
330
C
100
AcDbDictionary
  0
DICTIONARY
  5
17
330
C
100
AcDbDictionary
  3
STANDARD
350
18
  0
DICTIONARY
  5
19
330
C
100
AcDbDictionary
  0
ENDSEC
  0
EOF
